<svg xmlns="http://www.w3.org/2000/svg" width="256" height="64" viewBox="0 0 256 64">
<rect width="256" height="64" fill="rgba(0,0,0,0)"/>

  <defs>
  <filter id="grain-qt" x="0" y="0" width="100%" height="100%">
    <feTurbulence type="fractalNoise" baseFrequency="0.9" numOctaves="2" seed="992" result="n"/>
    <feColorMatrix in="n" type="matrix" values="0 0 0 0 0.1 0 0 0 0 0.08 0 0 0 0 0.06 0 0 0 0.09 0"/>
    <feComposite operator="over" in2="SourceGraphic"/>
  </filter>
  <filter id="wobble-qt" x="-5%" y="-5%" width="110%" height="110%">
    <feTurbulence type="turbulence" baseFrequency="0.05" numOctaves="2" seed="199" result="t"/>
    <feDisplacementMap in="SourceGraphic" in2="t" scale="2.4"/>
  </filter>
  <pattern id="hatch-qt" width="6" height="6" patternTransform="rotate(45)" patternUnits="userSpaceOnUse">
    <rect width="6" height="6" fill="none"/><line x1="0" y1="0" x2="0" y2="6" stroke="#1A1410" stroke-width="1"/>
  </pattern>
  <pattern id="cross-qt" width="7" height="7" patternUnits="userSpaceOnUse" patternTransform="rotate(45)">
    <line x1="0" y1="0" x2="0" y2="7" stroke="#1A1410" stroke-width="0.9"/><line x1="0" y1="0" x2="7" y2="0" stroke="#1A1410" stroke-width="0.9"/>
  </pattern>
  <radialGradient id="vig-qt" cx="50%" cy="46%" r="72%">
    <stop offset="62%" stop-color="#000000" stop-opacity="0"/>
    <stop offset="100%" stop-color="#000000" stop-opacity="0.26"/>
  </radialGradient>
</defs><rect width="256" height="64" fill="#7B1A1F" opacity="0.16"/>
  <path d="M-10 70 L20 -6" stroke="#7B1A1F" stroke-width="9" opacity="0.8"/><path d="M20 70 L50 -6" stroke="#7B1A1F" stroke-width="9" opacity="0.8"/><path d="M50 70 L80 -6" stroke="#7B1A1F" stroke-width="9" opacity="0.8"/><path d="M80 70 L110 -6" stroke="#7B1A1F" stroke-width="9" opacity="0.8"/><path d="M110 70 L140 -6" stroke="#7B1A1F" stroke-width="9" opacity="0.8"/><path d="M140 70 L170 -6" stroke="#7B1A1F" stroke-width="9" opacity="0.8"/><path d="M170 70 L200 -6" stroke="#7B1A1F" stroke-width="9" opacity="0.8"/><path d="M200 70 L230 -6" stroke="#7B1A1F" stroke-width="9" opacity="0.8"/><path d="M230 70 L260 -6" stroke="#7B1A1F" stroke-width="9" opacity="0.8"/>
  <path d="M-0.7 3.5 L127.4 4.0 L256.4 4.2" stroke="#7B1A1F" stroke-width="3"/>
  <path d="M-0.4 60.7 L127.9 60.1 L256.9 59.6" stroke="#7B1A1F" stroke-width="3"/>
</svg>