<svg xmlns="http://www.w3.org/2000/svg" width="192" height="192" viewBox="0 0 192 192">
<rect width="192" height="192" fill="rgba(0,0,0,0)"/>

  <defs>
  <filter id="grain-rk5" x="0" y="0" width="100%" height="100%">
    <feTurbulence type="fractalNoise" baseFrequency="0.9" numOctaves="2" seed="973" result="n"/>
    <feColorMatrix in="n" type="matrix" values="0 0 0 0 0.1 0 0 0 0 0.08 0 0 0 0 0.06 0 0 0 0.09 0"/>
    <feComposite operator="over" in2="SourceGraphic"/>
  </filter>
  <filter id="wobble-rk5" x="-5%" y="-5%" width="110%" height="110%">
    <feTurbulence type="turbulence" baseFrequency="0.05" numOctaves="2" seed="180" result="t"/>
    <feDisplacementMap in="SourceGraphic" in2="t" scale="2.4"/>
  </filter>
  <pattern id="hatch-rk5" width="6" height="6" patternTransform="rotate(45)" patternUnits="userSpaceOnUse">
    <rect width="6" height="6" fill="none"/><line x1="0" y1="0" x2="0" y2="6" stroke="#1A1410" stroke-width="1"/>
  </pattern>
  <pattern id="cross-rk5" width="7" height="7" patternUnits="userSpaceOnUse" patternTransform="rotate(45)">
    <line x1="0" y1="0" x2="0" y2="7" stroke="#1A1410" stroke-width="0.9"/><line x1="0" y1="0" x2="7" y2="0" stroke="#1A1410" stroke-width="0.9"/>
  </pattern>
  <radialGradient id="vig-rk5" cx="50%" cy="46%" r="72%">
    <stop offset="62%" stop-color="#000000" stop-opacity="0"/>
    <stop offset="100%" stop-color="#000000" stop-opacity="0.26"/>
  </radialGradient>
</defs>
  <circle cx="96" cy="96" r="86" fill="#17171A" stroke="#A58849" stroke-width="3.4"/>
  <circle cx="96" cy="96" r="76" fill="none" stroke="#6F5B31" stroke-width="1.6"/>
  <circle cx="96.0" cy="30.0" r="2.6" fill="#A58849"/><circle cx="153.2" cy="63.0" r="2.6" fill="#A58849"/><circle cx="153.2" cy="129.0" r="2.6" fill="#A58849"/><circle cx="96.0" cy="162.0" r="2.6" fill="#A58849"/><circle cx="38.8" cy="129.0" r="2.6" fill="#A58849"/><circle cx="38.8" cy="63.0" r="2.6" fill="#A58849"/>
  <g transform="translate(56 56) scale(2.5)"><circle cx="32" cy="36" r="14" fill="none" stroke="#1A1410" stroke-width="2.4"/><path d="M18 24 L20 12 L27 20 L32 8 L37 20 L44 12 L46 24" stroke="#1A1410" stroke-width="2" fill="none" stroke-linecap="round" stroke-linejoin="round" /></g>
  <g opacity="0.5"><circle cx="37.6" cy="144.1" r="0.45" fill="#1A1410" opacity="0.15"/><circle cx="31.8" cy="45.4" r="0.69" fill="#1A1410" opacity="0.23"/><circle cx="115.3" cy="39.5" r="0.75" fill="#1A1410" opacity="0.17"/><circle cx="155.6" cy="54.0" r="0.41" fill="#1A1410" opacity="0.20"/><circle cx="170.1" cy="163.1" r="0.87" fill="#1A1410" opacity="0.18"/><circle cx="81.6" cy="173.2" r="0.86" fill="#1A1410" opacity="0.12"/><circle cx="67.4" cy="43.5" r="1.04" fill="#1A1410" opacity="0.23"/><circle cx="160.7" cy="6.9" r="0.93" fill="#1A1410" opacity="0.24"/><circle cx="53.7" cy="19.2" r="0.85" fill="#1A1410" opacity="0.27"/><circle cx="43.1" cy="51.9" r="1.04" fill="#1A1410" opacity="0.16"/><circle cx="118.5" cy="122.1" r="0.83" fill="#1A1410" opacity="0.27"/><circle cx="27.0" cy="149.5" r="0.82" fill="#1A1410" opacity="0.13"/><circle cx="134.0" cy="189.9" r="0.42" fill="#1A1410" opacity="0.15"/><circle cx="84.6" cy="15.5" r="1.03" fill="#1A1410" opacity="0.13"/><circle cx="128.3" cy="173.7" r="0.97" fill="#1A1410" opacity="0.17"/><circle cx="38.2" cy="168.2" r="0.96" fill="#1A1410" opacity="0.28"/><circle cx="110.9" cy="99.0" r="0.38" fill="#1A1410" opacity="0.23"/><circle cx="4.7" cy="183.5" r="0.61" fill="#1A1410" opacity="0.24"/><circle cx="68.8" cy="79.6" r="0.63" fill="#1A1410" opacity="0.26"/><circle cx="79.3" cy="39.2" r="1.02" fill="#1A1410" opacity="0.24"/><circle cx="78.6" cy="12.1" r="0.61" fill="#1A1410" opacity="0.23"/><circle cx="77.0" cy="6.2" r="0.74" fill="#1A1410" opacity="0.15"/><circle cx="83.8" cy="121.5" r="0.72" fill="#1A1410" opacity="0.13"/><circle cx="188.9" cy="15.5" r="0.61" fill="#1A1410" opacity="0.26"/><circle cx="81.0" cy="77.6" r="0.99" fill="#1A1410" opacity="0.27"/><circle cx="6.3" cy="105.4" r="0.39" fill="#1A1410" opacity="0.12"/><circle cx="35.1" cy="156.2" r="0.95" fill="#1A1410" opacity="0.23"/><circle cx="62.0" cy="75.0" r="0.80" fill="#1A1410" opacity="0.23"/><circle cx="25.3" cy="70.2" r="0.52" fill="#1A1410" opacity="0.12"/><circle cx="93.7" cy="69.1" r="0.58" fill="#1A1410" opacity="0.13"/><circle cx="134.4" cy="106.6" r="0.72" fill="#1A1410" opacity="0.17"/><circle cx="94.8" cy="178.3" r="0.40" fill="#1A1410" opacity="0.23"/><circle cx="65.4" cy="67.0" r="0.90" fill="#1A1410" opacity="0.13"/><circle cx="125.4" cy="19.6" r="0.80" fill="#1A1410" opacity="0.26"/><circle cx="112.2" cy="60.5" r="0.57" fill="#1A1410" opacity="0.11"/><circle cx="65.4" cy="173.3" r="0.45" fill="#1A1410" opacity="0.11"/><circle cx="135.0" cy="174.3" r="0.84" fill="#1A1410" opacity="0.18"/><circle cx="180.8" cy="176.9" r="0.57" fill="#1A1410" opacity="0.13"/><circle cx="13.4" cy="166.6" r="0.87" fill="#1A1410" opacity="0.16"/><circle cx="64.6" cy="148.9" r="1.00" fill="#1A1410" opacity="0.21"/><circle cx="28.3" cy="31.9" r="0.99" fill="#1A1410" opacity="0.13"/><circle cx="115.0" cy="138.4" r="0.39" fill="#1A1410" opacity="0.20"/><circle cx="171.0" cy="73.0" r="0.94" fill="#1A1410" opacity="0.15"/><circle cx="66.6" cy="184.7" r="0.84" fill="#1A1410" opacity="0.28"/><circle cx="180.0" cy="135.2" r="0.40" fill="#1A1410" opacity="0.24"/><circle cx="11.3" cy="131.0" r="0.54" fill="#1A1410" opacity="0.26"/><circle cx="49.3" cy="14.4" r="0.54" fill="#1A1410" opacity="0.20"/><circle cx="168.0" cy="62.1" r="0.55" fill="#1A1410" opacity="0.24"/><circle cx="76.8" cy="102.7" r="0.36" fill="#1A1410" opacity="0.23"/><circle cx="182.7" cy="94.9" r="0.98" fill="#1A1410" opacity="0.26"/><circle cx="74.9" cy="17.9" r="0.63" fill="#1A1410" opacity="0.16"/><circle cx="3.2" cy="77.6" r="1.03" fill="#1A1410" opacity="0.13"/><circle cx="19.1" cy="100.4" r="1.04" fill="#1A1410" opacity="0.25"/><circle cx="171.1" cy="45.5" r="0.63" fill="#1A1410" opacity="0.17"/><circle cx="77.9" cy="38.4" r="1.02" fill="#1A1410" opacity="0.18"/><circle cx="49.7" cy="68.5" r="0.79" fill="#1A1410" opacity="0.23"/><circle cx="5.2" cy="37.7" r="0.95" fill="#1A1410" opacity="0.17"/><circle cx="33.0" cy="104.5" r="0.46" fill="#1A1410" opacity="0.21"/><circle cx="29.0" cy="135.0" r="0.63" fill="#1A1410" opacity="0.23"/><circle cx="100.9" cy="147.4" r="0.76" fill="#1A1410" opacity="0.18"/><circle cx="183.2" cy="80.2" r="1.04" fill="#1A1410" opacity="0.23"/><circle cx="67.9" cy="153.3" r="0.82" fill="#1A1410" opacity="0.16"/><circle cx="126.2" cy="89.9" r="0.76" fill="#1A1410" opacity="0.14"/><circle cx="91.0" cy="3.3" r="0.98" fill="#1A1410" opacity="0.27"/><circle cx="59.9" cy="122.4" r="0.48" fill="#1A1410" opacity="0.18"/><circle cx="129.3" cy="84.2" r="1.03" fill="#1A1410" opacity="0.24"/><circle cx="30.2" cy="190.4" r="0.84" fill="#1A1410" opacity="0.19"/><circle cx="158.3" cy="0.8" r="0.36" fill="#1A1410" opacity="0.16"/><circle cx="25.7" cy="44.3" r="0.82" fill="#1A1410" opacity="0.12"/><circle cx="59.2" cy="163.3" r="0.66" fill="#1A1410" opacity="0.27"/><circle cx="121.7" cy="31.1" r="0.90" fill="#1A1410" opacity="0.21"/><circle cx="104.2" cy="126.7" r="0.36" fill="#1A1410" opacity="0.13"/><circle cx="101.8" cy="126.5" r="0.74" fill="#1A1410" opacity="0.28"/><circle cx="81.8" cy="125.3" r="0.42" fill="#1A1410" opacity="0.13"/><circle cx="168.4" cy="147.9" r="0.39" fill="#1A1410" opacity="0.16"/><circle cx="12.6" cy="163.9" r="0.78" fill="#1A1410" opacity="0.26"/><circle cx="76.7" cy="70.0" r="0.64" fill="#1A1410" opacity="0.19"/><circle cx="54.4" cy="121.0" r="1.00" fill="#1A1410" opacity="0.27"/><circle cx="13.9" cy="82.8" r="0.82" fill="#1A1410" opacity="0.26"/><circle cx="69.1" cy="140.0" r="1.03" fill="#1A1410" opacity="0.23"/></g><rect width="192" height="192" fill="url(#vig-rk5)"/>
</svg>