<svg xmlns="http://www.w3.org/2000/svg" width="128" height="128" viewBox="0 0 128 128">
<rect width="128" height="128" fill="#CDB992"/>

  <defs>
  <filter id="grain-acbroken-seal" x="0" y="0" width="100%" height="100%">
    <feTurbulence type="fractalNoise" baseFrequency="0.9" numOctaves="2" seed="142" result="n"/>
    <feColorMatrix in="n" type="matrix" values="0 0 0 0 0.1 0 0 0 0 0.08 0 0 0 0 0.06 0 0 0 0.09 0"/>
    <feComposite operator="over" in2="SourceGraphic"/>
  </filter>
  <filter id="wobble-acbroken-seal" x="-5%" y="-5%" width="110%" height="110%">
    <feTurbulence type="turbulence" baseFrequency="0.05" numOctaves="2" seed="549" result="t"/>
    <feDisplacementMap in="SourceGraphic" in2="t" scale="2.4"/>
  </filter>
  <pattern id="hatch-acbroken-seal" width="6" height="6" patternTransform="rotate(45)" patternUnits="userSpaceOnUse">
    <rect width="6" height="6" fill="none"/><line x1="0" y1="0" x2="0" y2="6" stroke="#1A1410" stroke-width="1"/>
  </pattern>
  <pattern id="cross-acbroken-seal" width="7" height="7" patternUnits="userSpaceOnUse" patternTransform="rotate(45)">
    <line x1="0" y1="0" x2="0" y2="7" stroke="#1A1410" stroke-width="0.9"/><line x1="0" y1="0" x2="7" y2="0" stroke="#1A1410" stroke-width="0.9"/>
  </pattern>
  <radialGradient id="vig-acbroken-seal" cx="50%" cy="46%" r="72%">
    <stop offset="62%" stop-color="#000000" stop-opacity="0"/>
    <stop offset="100%" stop-color="#000000" stop-opacity="0.26"/>
  </radialGradient>
</defs>
  <path d="M64 6 L76 22 L98 18 L96 40 L114 52 L98 66 L102 88 L80 88 L68 106 L56 88 L34 90 L38 68 L22 54 L38 40 L34 18 L56 22 Z" fill="#CDB992" stroke="#1A1410" stroke-width="2.2"/>
  <g transform="translate(32 32) scale(2)"><path d="M16 26 Q32 12 48 26 L44 46 Q32 54 20 46 Z M28 24 L38 40 M24 44 L40 30" stroke="#1A1410" stroke-width="2.2" fill="none" stroke-linecap="round" stroke-linejoin="round" /></g>
  <g opacity="0.5"><circle cx="118.1" cy="115.8" r="0.41" fill="#1A1410" opacity="0.12"/><circle cx="88.6" cy="70.2" r="0.89" fill="#1A1410" opacity="0.14"/><circle cx="42.8" cy="55.5" r="0.94" fill="#1A1410" opacity="0.20"/><circle cx="127.9" cy="119.7" r="0.67" fill="#1A1410" opacity="0.17"/><circle cx="63.4" cy="44.9" r="0.66" fill="#1A1410" opacity="0.14"/><circle cx="48.5" cy="92.3" r="0.50" fill="#1A1410" opacity="0.23"/><circle cx="92.4" cy="98.0" r="0.59" fill="#1A1410" opacity="0.15"/><circle cx="63.5" cy="60.3" r="0.71" fill="#1A1410" opacity="0.24"/><circle cx="93.0" cy="111.4" r="0.79" fill="#1A1410" opacity="0.25"/><circle cx="76.6" cy="59.5" r="0.55" fill="#1A1410" opacity="0.13"/><circle cx="20.3" cy="101.2" r="0.67" fill="#1A1410" opacity="0.17"/><circle cx="99.1" cy="7.5" r="0.88" fill="#1A1410" opacity="0.15"/><circle cx="115.9" cy="13.8" r="1.03" fill="#1A1410" opacity="0.18"/><circle cx="19.8" cy="68.9" r="1.04" fill="#1A1410" opacity="0.21"/><circle cx="66.2" cy="24.9" r="0.41" fill="#1A1410" opacity="0.19"/><circle cx="88.5" cy="83.4" r="0.99" fill="#1A1410" opacity="0.11"/><circle cx="33.3" cy="63.8" r="0.37" fill="#1A1410" opacity="0.13"/><circle cx="19.1" cy="10.5" r="0.46" fill="#1A1410" opacity="0.24"/><circle cx="46.9" cy="55.2" r="0.45" fill="#1A1410" opacity="0.23"/><circle cx="8.9" cy="29.5" r="0.44" fill="#1A1410" opacity="0.25"/><circle cx="105.6" cy="83.3" r="0.78" fill="#1A1410" opacity="0.27"/><circle cx="117.6" cy="21.4" r="1.02" fill="#1A1410" opacity="0.13"/><circle cx="124.6" cy="26.2" r="0.40" fill="#1A1410" opacity="0.23"/><circle cx="49.2" cy="2.3" r="0.80" fill="#1A1410" opacity="0.16"/><circle cx="27.2" cy="51.4" r="1.05" fill="#1A1410" opacity="0.26"/><circle cx="34.1" cy="20.3" r="0.48" fill="#1A1410" opacity="0.22"/><circle cx="53.2" cy="63.5" r="0.63" fill="#1A1410" opacity="0.16"/><circle cx="112.4" cy="105.3" r="0.83" fill="#1A1410" opacity="0.19"/><circle cx="15.7" cy="71.2" r="0.37" fill="#1A1410" opacity="0.21"/><circle cx="98.9" cy="35.8" r="0.70" fill="#1A1410" opacity="0.28"/><circle cx="112.2" cy="37.9" r="0.99" fill="#1A1410" opacity="0.18"/><circle cx="34.2" cy="108.8" r="0.54" fill="#1A1410" opacity="0.11"/><circle cx="76.8" cy="92.8" r="0.58" fill="#1A1410" opacity="0.15"/><circle cx="76.5" cy="4.2" r="0.93" fill="#1A1410" opacity="0.19"/><circle cx="69.2" cy="20.3" r="0.37" fill="#1A1410" opacity="0.23"/><circle cx="115.7" cy="98.1" r="1.02" fill="#1A1410" opacity="0.23"/><circle cx="86.0" cy="80.5" r="0.84" fill="#1A1410" opacity="0.28"/><circle cx="108.8" cy="127.8" r="0.41" fill="#1A1410" opacity="0.21"/><circle cx="7.8" cy="36.0" r="0.39" fill="#1A1410" opacity="0.23"/><circle cx="29.1" cy="113.6" r="0.37" fill="#1A1410" opacity="0.17"/><circle cx="123.0" cy="39.6" r="0.46" fill="#1A1410" opacity="0.12"/><circle cx="27.0" cy="88.1" r="0.64" fill="#1A1410" opacity="0.21"/><circle cx="110.3" cy="106.2" r="0.95" fill="#1A1410" opacity="0.25"/><circle cx="50.6" cy="19.0" r="1.00" fill="#1A1410" opacity="0.16"/><circle cx="37.5" cy="92.8" r="1.03" fill="#1A1410" opacity="0.22"/><circle cx="59.6" cy="44.0" r="0.45" fill="#1A1410" opacity="0.24"/><circle cx="3.0" cy="21.0" r="0.97" fill="#1A1410" opacity="0.25"/><circle cx="12.8" cy="96.8" r="0.79" fill="#1A1410" opacity="0.23"/><circle cx="11.7" cy="107.0" r="0.90" fill="#1A1410" opacity="0.20"/><circle cx="85.4" cy="0.9" r="0.60" fill="#1A1410" opacity="0.21"/><circle cx="50.1" cy="13.1" r="0.40" fill="#1A1410" opacity="0.21"/><circle cx="14.0" cy="104.4" r="0.81" fill="#1A1410" opacity="0.28"/><circle cx="21.5" cy="54.8" r="0.97" fill="#1A1410" opacity="0.17"/><circle cx="97.8" cy="47.3" r="0.48" fill="#1A1410" opacity="0.15"/><circle cx="27.2" cy="99.3" r="0.60" fill="#1A1410" opacity="0.16"/><circle cx="86.2" cy="122.8" r="0.95" fill="#1A1410" opacity="0.13"/><circle cx="21.4" cy="33.2" r="0.47" fill="#1A1410" opacity="0.18"/><circle cx="5.0" cy="93.4" r="0.68" fill="#1A1410" opacity="0.19"/><circle cx="51.9" cy="37.0" r="0.36" fill="#1A1410" opacity="0.14"/><circle cx="108.9" cy="52.1" r="0.52" fill="#1A1410" opacity="0.27"/></g><rect width="128" height="128" fill="url(#vig-acbroken-seal)"/>
</svg>