<svg xmlns="http://www.w3.org/2000/svg" width="128" height="128" viewBox="0 0 128 128">
<rect width="128" height="128" fill="#CDB992"/>

  <defs>
  <filter id="grain-acruled-line" x="0" y="0" width="100%" height="100%">
    <feTurbulence type="fractalNoise" baseFrequency="0.9" numOctaves="2" seed="562" result="n"/>
    <feColorMatrix in="n" type="matrix" values="0 0 0 0 0.1 0 0 0 0 0.08 0 0 0 0 0.06 0 0 0 0.09 0"/>
    <feComposite operator="over" in2="SourceGraphic"/>
  </filter>
  <filter id="wobble-acruled-line" x="-5%" y="-5%" width="110%" height="110%">
    <feTurbulence type="turbulence" baseFrequency="0.05" numOctaves="2" seed="669" result="t"/>
    <feDisplacementMap in="SourceGraphic" in2="t" scale="2.4"/>
  </filter>
  <pattern id="hatch-acruled-line" width="6" height="6" patternTransform="rotate(45)" patternUnits="userSpaceOnUse">
    <rect width="6" height="6" fill="none"/><line x1="0" y1="0" x2="0" y2="6" stroke="#1A1410" stroke-width="1"/>
  </pattern>
  <pattern id="cross-acruled-line" width="7" height="7" patternUnits="userSpaceOnUse" patternTransform="rotate(45)">
    <line x1="0" y1="0" x2="0" y2="7" stroke="#1A1410" stroke-width="0.9"/><line x1="0" y1="0" x2="7" y2="0" stroke="#1A1410" stroke-width="0.9"/>
  </pattern>
  <radialGradient id="vig-acruled-line" cx="50%" cy="46%" r="72%">
    <stop offset="62%" stop-color="#000000" stop-opacity="0"/>
    <stop offset="100%" stop-color="#000000" stop-opacity="0.26"/>
  </radialGradient>
</defs>
  <path d="M64 6 L76 22 L98 18 L96 40 L114 52 L98 66 L102 88 L80 88 L68 106 L56 88 L34 90 L38 68 L22 54 L38 40 L34 18 L56 22 Z" fill="#CDB992" stroke="#1A1410" stroke-width="2.2"/>
  <g transform="translate(32 32) scale(2)"><path d="M10 22 H54 M10 32 H48 M10 42 H54 M10 52 H44" stroke="#1A1410" stroke-width="2.2" fill="none" stroke-linecap="round" stroke-linejoin="round" /><path d="M10 32 H48" stroke="#7B1A1F" stroke-width="2.4"/></g>
  <g opacity="0.5"><circle cx="27.8" cy="5.0" r="1.05" fill="#1A1410" opacity="0.12"/><circle cx="11.7" cy="38.4" r="0.84" fill="#1A1410" opacity="0.28"/><circle cx="96.7" cy="44.0" r="0.44" fill="#1A1410" opacity="0.24"/><circle cx="54.8" cy="18.8" r="0.93" fill="#1A1410" opacity="0.12"/><circle cx="110.5" cy="98.7" r="0.90" fill="#1A1410" opacity="0.12"/><circle cx="51.3" cy="39.7" r="0.96" fill="#1A1410" opacity="0.16"/><circle cx="101.7" cy="12.1" r="0.69" fill="#1A1410" opacity="0.25"/><circle cx="62.5" cy="83.6" r="0.85" fill="#1A1410" opacity="0.11"/><circle cx="16.1" cy="63.4" r="0.83" fill="#1A1410" opacity="0.24"/><circle cx="53.1" cy="89.9" r="0.91" fill="#1A1410" opacity="0.18"/><circle cx="88.3" cy="123.5" r="0.87" fill="#1A1410" opacity="0.25"/><circle cx="22.2" cy="75.4" r="0.89" fill="#1A1410" opacity="0.20"/><circle cx="94.5" cy="57.7" r="0.58" fill="#1A1410" opacity="0.19"/><circle cx="61.0" cy="100.9" r="0.84" fill="#1A1410" opacity="0.26"/><circle cx="103.5" cy="59.4" r="0.68" fill="#1A1410" opacity="0.20"/><circle cx="114.0" cy="14.8" r="0.48" fill="#1A1410" opacity="0.14"/><circle cx="29.1" cy="49.4" r="0.94" fill="#1A1410" opacity="0.21"/><circle cx="55.0" cy="120.7" r="0.86" fill="#1A1410" opacity="0.19"/><circle cx="89.7" cy="74.6" r="0.91" fill="#1A1410" opacity="0.18"/><circle cx="33.3" cy="71.4" r="0.96" fill="#1A1410" opacity="0.15"/><circle cx="74.9" cy="70.1" r="0.39" fill="#1A1410" opacity="0.17"/><circle cx="110.5" cy="58.8" r="0.66" fill="#1A1410" opacity="0.14"/><circle cx="101.3" cy="125.7" r="0.89" fill="#1A1410" opacity="0.26"/><circle cx="17.7" cy="36.8" r="0.83" fill="#1A1410" opacity="0.25"/><circle cx="58.7" cy="8.3" r="0.96" fill="#1A1410" opacity="0.13"/><circle cx="127.7" cy="93.9" r="0.48" fill="#1A1410" opacity="0.22"/><circle cx="97.7" cy="79.5" r="0.46" fill="#1A1410" opacity="0.16"/><circle cx="102.2" cy="93.5" r="0.55" fill="#1A1410" opacity="0.11"/><circle cx="115.9" cy="76.6" r="0.36" fill="#1A1410" opacity="0.25"/><circle cx="33.1" cy="24.3" r="0.95" fill="#1A1410" opacity="0.27"/><circle cx="113.3" cy="96.7" r="0.64" fill="#1A1410" opacity="0.14"/><circle cx="127.7" cy="73.3" r="0.44" fill="#1A1410" opacity="0.26"/><circle cx="95.7" cy="79.3" r="0.86" fill="#1A1410" opacity="0.15"/><circle cx="48.8" cy="109.4" r="0.92" fill="#1A1410" opacity="0.19"/><circle cx="51.0" cy="67.8" r="0.80" fill="#1A1410" opacity="0.21"/><circle cx="59.1" cy="18.4" r="0.56" fill="#1A1410" opacity="0.14"/><circle cx="17.4" cy="22.4" r="0.89" fill="#1A1410" opacity="0.13"/><circle cx="64.9" cy="109.4" r="0.43" fill="#1A1410" opacity="0.15"/><circle cx="68.2" cy="86.7" r="0.99" fill="#1A1410" opacity="0.20"/><circle cx="72.0" cy="33.1" r="0.45" fill="#1A1410" opacity="0.25"/><circle cx="29.2" cy="98.3" r="0.93" fill="#1A1410" opacity="0.16"/><circle cx="54.0" cy="108.5" r="0.45" fill="#1A1410" opacity="0.22"/><circle cx="95.2" cy="53.1" r="0.48" fill="#1A1410" opacity="0.13"/><circle cx="10.3" cy="27.8" r="0.62" fill="#1A1410" opacity="0.20"/><circle cx="42.5" cy="123.0" r="0.66" fill="#1A1410" opacity="0.14"/><circle cx="26.8" cy="79.9" r="0.38" fill="#1A1410" opacity="0.28"/><circle cx="66.9" cy="127.2" r="0.96" fill="#1A1410" opacity="0.24"/><circle cx="50.8" cy="40.0" r="0.67" fill="#1A1410" opacity="0.19"/><circle cx="4.6" cy="71.3" r="0.53" fill="#1A1410" opacity="0.24"/><circle cx="24.6" cy="8.5" r="0.48" fill="#1A1410" opacity="0.13"/><circle cx="91.8" cy="63.6" r="0.44" fill="#1A1410" opacity="0.14"/><circle cx="102.0" cy="16.4" r="0.97" fill="#1A1410" opacity="0.22"/><circle cx="95.3" cy="79.2" r="0.59" fill="#1A1410" opacity="0.17"/><circle cx="97.3" cy="88.0" r="0.36" fill="#1A1410" opacity="0.16"/><circle cx="65.7" cy="73.2" r="0.69" fill="#1A1410" opacity="0.14"/><circle cx="46.6" cy="88.4" r="0.55" fill="#1A1410" opacity="0.20"/><circle cx="25.1" cy="109.0" r="0.90" fill="#1A1410" opacity="0.21"/><circle cx="96.9" cy="86.9" r="0.62" fill="#1A1410" opacity="0.24"/><circle cx="102.6" cy="66.8" r="0.36" fill="#1A1410" opacity="0.15"/><circle cx="47.2" cy="9.4" r="0.52" fill="#1A1410" opacity="0.27"/></g><rect width="128" height="128" fill="url(#vig-acruled-line)"/>
</svg>