<svg xmlns="http://www.w3.org/2000/svg" width="128" height="128" viewBox="0 0 128 128">
<rect width="128" height="128" fill="#CDB992"/>

  <defs>
  <filter id="grain-acbroken-chain" x="0" y="0" width="100%" height="100%">
    <feTurbulence type="fractalNoise" baseFrequency="0.9" numOctaves="2" seed="492" result="n"/>
    <feColorMatrix in="n" type="matrix" values="0 0 0 0 0.1 0 0 0 0 0.08 0 0 0 0 0.06 0 0 0 0.09 0"/>
    <feComposite operator="over" in2="SourceGraphic"/>
  </filter>
  <filter id="wobble-acbroken-chain" x="-5%" y="-5%" width="110%" height="110%">
    <feTurbulence type="turbulence" baseFrequency="0.05" numOctaves="2" seed="899" result="t"/>
    <feDisplacementMap in="SourceGraphic" in2="t" scale="2.4"/>
  </filter>
  <pattern id="hatch-acbroken-chain" width="6" height="6" patternTransform="rotate(45)" patternUnits="userSpaceOnUse">
    <rect width="6" height="6" fill="none"/><line x1="0" y1="0" x2="0" y2="6" stroke="#1A1410" stroke-width="1"/>
  </pattern>
  <pattern id="cross-acbroken-chain" width="7" height="7" patternUnits="userSpaceOnUse" patternTransform="rotate(45)">
    <line x1="0" y1="0" x2="0" y2="7" stroke="#1A1410" stroke-width="0.9"/><line x1="0" y1="0" x2="7" y2="0" stroke="#1A1410" stroke-width="0.9"/>
  </pattern>
  <radialGradient id="vig-acbroken-chain" cx="50%" cy="46%" r="72%">
    <stop offset="62%" stop-color="#000000" stop-opacity="0"/>
    <stop offset="100%" stop-color="#000000" stop-opacity="0.26"/>
  </radialGradient>
</defs>
  <path d="M64 6 L76 22 L98 18 L96 40 L114 52 L98 66 L102 88 L80 88 L68 106 L56 88 L34 90 L38 68 L22 54 L38 40 L34 18 L56 22 Z" fill="#CDB992" stroke="#1A1410" stroke-width="2.2"/>
  <g transform="translate(32 32) scale(2)"><path d="M12 24 a8 8 0 1 1 0 16 M52 24 a8 8 0 1 0 0 16 M22 28 L30 32 L26 36 M42 28 L34 32 L38 36" stroke="#1A1410" stroke-width="2.2" fill="none" stroke-linecap="round" stroke-linejoin="round" /></g>
  <g opacity="0.5"><circle cx="115.2" cy="77.2" r="0.83" fill="#1A1410" opacity="0.19"/><circle cx="110.0" cy="48.9" r="0.41" fill="#1A1410" opacity="0.26"/><circle cx="126.5" cy="109.3" r="0.78" fill="#1A1410" opacity="0.21"/><circle cx="109.6" cy="66.4" r="0.63" fill="#1A1410" opacity="0.19"/><circle cx="40.7" cy="18.8" r="0.69" fill="#1A1410" opacity="0.14"/><circle cx="20.7" cy="77.2" r="1.04" fill="#1A1410" opacity="0.13"/><circle cx="25.4" cy="79.1" r="0.80" fill="#1A1410" opacity="0.26"/><circle cx="56.1" cy="117.4" r="0.75" fill="#1A1410" opacity="0.18"/><circle cx="19.3" cy="54.3" r="1.04" fill="#1A1410" opacity="0.28"/><circle cx="117.7" cy="89.1" r="0.71" fill="#1A1410" opacity="0.27"/><circle cx="101.1" cy="113.2" r="0.52" fill="#1A1410" opacity="0.22"/><circle cx="81.1" cy="47.6" r="0.94" fill="#1A1410" opacity="0.21"/><circle cx="36.0" cy="80.9" r="1.01" fill="#1A1410" opacity="0.21"/><circle cx="124.5" cy="65.6" r="0.54" fill="#1A1410" opacity="0.15"/><circle cx="54.3" cy="109.3" r="0.45" fill="#1A1410" opacity="0.14"/><circle cx="24.5" cy="51.3" r="0.73" fill="#1A1410" opacity="0.11"/><circle cx="24.1" cy="23.0" r="0.76" fill="#1A1410" opacity="0.17"/><circle cx="17.8" cy="61.9" r="0.79" fill="#1A1410" opacity="0.12"/><circle cx="90.2" cy="78.8" r="0.73" fill="#1A1410" opacity="0.16"/><circle cx="67.1" cy="100.2" r="0.48" fill="#1A1410" opacity="0.23"/><circle cx="78.6" cy="111.8" r="0.60" fill="#1A1410" opacity="0.14"/><circle cx="19.7" cy="6.8" r="1.00" fill="#1A1410" opacity="0.27"/><circle cx="37.3" cy="7.3" r="0.53" fill="#1A1410" opacity="0.26"/><circle cx="105.4" cy="87.6" r="0.65" fill="#1A1410" opacity="0.14"/><circle cx="102.1" cy="115.9" r="0.99" fill="#1A1410" opacity="0.14"/><circle cx="44.8" cy="6.4" r="0.78" fill="#1A1410" opacity="0.23"/><circle cx="78.8" cy="86.3" r="0.74" fill="#1A1410" opacity="0.27"/><circle cx="78.5" cy="119.7" r="0.57" fill="#1A1410" opacity="0.21"/><circle cx="17.5" cy="33.3" r="0.98" fill="#1A1410" opacity="0.17"/><circle cx="100.8" cy="42.3" r="0.70" fill="#1A1410" opacity="0.24"/><circle cx="91.1" cy="78.2" r="0.89" fill="#1A1410" opacity="0.16"/><circle cx="100.1" cy="6.3" r="0.53" fill="#1A1410" opacity="0.26"/><circle cx="75.2" cy="119.7" r="0.59" fill="#1A1410" opacity="0.27"/><circle cx="21.6" cy="6.6" r="0.95" fill="#1A1410" opacity="0.21"/><circle cx="60.9" cy="110.0" r="0.62" fill="#1A1410" opacity="0.26"/><circle cx="50.3" cy="11.3" r="0.37" fill="#1A1410" opacity="0.18"/><circle cx="28.6" cy="116.9" r="0.76" fill="#1A1410" opacity="0.15"/><circle cx="101.6" cy="89.3" r="0.83" fill="#1A1410" opacity="0.14"/><circle cx="61.8" cy="106.6" r="1.01" fill="#1A1410" opacity="0.14"/><circle cx="28.9" cy="37.9" r="0.69" fill="#1A1410" opacity="0.16"/><circle cx="69.5" cy="103.4" r="0.98" fill="#1A1410" opacity="0.24"/><circle cx="14.6" cy="41.1" r="0.44" fill="#1A1410" opacity="0.17"/><circle cx="45.7" cy="118.8" r="0.40" fill="#1A1410" opacity="0.15"/><circle cx="16.3" cy="83.0" r="0.78" fill="#1A1410" opacity="0.23"/><circle cx="5.8" cy="122.2" r="0.81" fill="#1A1410" opacity="0.14"/><circle cx="96.3" cy="18.6" r="0.63" fill="#1A1410" opacity="0.24"/><circle cx="24.3" cy="55.9" r="0.87" fill="#1A1410" opacity="0.14"/><circle cx="21.2" cy="123.1" r="0.46" fill="#1A1410" opacity="0.20"/><circle cx="41.4" cy="67.6" r="0.50" fill="#1A1410" opacity="0.18"/><circle cx="11.4" cy="117.2" r="0.76" fill="#1A1410" opacity="0.23"/><circle cx="27.3" cy="52.5" r="0.56" fill="#1A1410" opacity="0.17"/><circle cx="48.0" cy="27.8" r="0.64" fill="#1A1410" opacity="0.12"/><circle cx="107.6" cy="55.8" r="0.51" fill="#1A1410" opacity="0.25"/><circle cx="24.5" cy="44.5" r="0.36" fill="#1A1410" opacity="0.19"/><circle cx="68.8" cy="111.5" r="0.55" fill="#1A1410" opacity="0.13"/><circle cx="40.7" cy="14.3" r="0.44" fill="#1A1410" opacity="0.18"/><circle cx="116.5" cy="43.6" r="0.69" fill="#1A1410" opacity="0.12"/><circle cx="74.8" cy="11.2" r="0.36" fill="#1A1410" opacity="0.22"/><circle cx="18.1" cy="32.6" r="0.56" fill="#1A1410" opacity="0.11"/><circle cx="127.2" cy="66.8" r="0.36" fill="#1A1410" opacity="0.13"/></g><rect width="128" height="128" fill="url(#vig-acbroken-chain)"/>
</svg>