<svg xmlns="http://www.w3.org/2000/svg" width="128" height="128" viewBox="0 0 128 128">
<rect width="128" height="128" fill="#CDB992"/>

  <defs>
  <filter id="grain-acpillar" x="0" y="0" width="100%" height="100%">
    <feTurbulence type="fractalNoise" baseFrequency="0.9" numOctaves="2" seed="689" result="n"/>
    <feColorMatrix in="n" type="matrix" values="0 0 0 0 0.1 0 0 0 0 0.08 0 0 0 0 0.06 0 0 0 0.09 0"/>
    <feComposite operator="over" in2="SourceGraphic"/>
  </filter>
  <filter id="wobble-acpillar" x="-5%" y="-5%" width="110%" height="110%">
    <feTurbulence type="turbulence" baseFrequency="0.05" numOctaves="2" seed="496" result="t"/>
    <feDisplacementMap in="SourceGraphic" in2="t" scale="2.4"/>
  </filter>
  <pattern id="hatch-acpillar" width="6" height="6" patternTransform="rotate(45)" patternUnits="userSpaceOnUse">
    <rect width="6" height="6" fill="none"/><line x1="0" y1="0" x2="0" y2="6" stroke="#1A1410" stroke-width="1"/>
  </pattern>
  <pattern id="cross-acpillar" width="7" height="7" patternUnits="userSpaceOnUse" patternTransform="rotate(45)">
    <line x1="0" y1="0" x2="0" y2="7" stroke="#1A1410" stroke-width="0.9"/><line x1="0" y1="0" x2="7" y2="0" stroke="#1A1410" stroke-width="0.9"/>
  </pattern>
  <radialGradient id="vig-acpillar" cx="50%" cy="46%" r="72%">
    <stop offset="62%" stop-color="#000000" stop-opacity="0"/>
    <stop offset="100%" stop-color="#000000" stop-opacity="0.26"/>
  </radialGradient>
</defs>
  <path d="M64 6 L76 22 L98 18 L96 40 L114 52 L98 66 L102 88 L80 88 L68 106 L56 88 L34 90 L38 68 L22 54 L38 40 L34 18 L56 22 Z" fill="#CDB992" stroke="#1A1410" stroke-width="2.2"/>
  <g transform="translate(32 32) scale(2)"><path d="M22 10 H42 M20 14 H44 M24 18 V46 M32 18 V46 M40 18 V46 M20 48 H44 M22 54 H42" stroke="#1A1410" stroke-width="2.2" fill="none" stroke-linecap="round" stroke-linejoin="round" /></g>
  <g opacity="0.5"><circle cx="70.2" cy="76.0" r="0.57" fill="#1A1410" opacity="0.18"/><circle cx="35.1" cy="48.5" r="0.65" fill="#1A1410" opacity="0.15"/><circle cx="54.1" cy="13.1" r="0.84" fill="#1A1410" opacity="0.27"/><circle cx="28.8" cy="79.8" r="0.82" fill="#1A1410" opacity="0.21"/><circle cx="1.3" cy="11.4" r="0.44" fill="#1A1410" opacity="0.21"/><circle cx="98.7" cy="28.7" r="0.80" fill="#1A1410" opacity="0.15"/><circle cx="80.8" cy="94.5" r="0.72" fill="#1A1410" opacity="0.11"/><circle cx="65.4" cy="72.6" r="0.53" fill="#1A1410" opacity="0.27"/><circle cx="21.6" cy="36.4" r="0.96" fill="#1A1410" opacity="0.22"/><circle cx="2.4" cy="93.9" r="0.62" fill="#1A1410" opacity="0.18"/><circle cx="35.5" cy="102.7" r="0.95" fill="#1A1410" opacity="0.16"/><circle cx="9.5" cy="68.9" r="0.52" fill="#1A1410" opacity="0.24"/><circle cx="80.6" cy="115.8" r="0.56" fill="#1A1410" opacity="0.17"/><circle cx="48.0" cy="66.4" r="0.71" fill="#1A1410" opacity="0.23"/><circle cx="17.0" cy="6.7" r="0.83" fill="#1A1410" opacity="0.14"/><circle cx="35.1" cy="40.0" r="0.75" fill="#1A1410" opacity="0.17"/><circle cx="26.8" cy="72.2" r="0.57" fill="#1A1410" opacity="0.14"/><circle cx="99.3" cy="30.2" r="0.40" fill="#1A1410" opacity="0.27"/><circle cx="102.0" cy="71.9" r="0.53" fill="#1A1410" opacity="0.22"/><circle cx="64.9" cy="41.6" r="0.40" fill="#1A1410" opacity="0.14"/><circle cx="25.6" cy="115.9" r="0.37" fill="#1A1410" opacity="0.23"/><circle cx="115.7" cy="32.9" r="0.68" fill="#1A1410" opacity="0.13"/><circle cx="26.1" cy="73.9" r="0.76" fill="#1A1410" opacity="0.15"/><circle cx="102.2" cy="103.4" r="0.61" fill="#1A1410" opacity="0.19"/><circle cx="86.7" cy="75.4" r="0.95" fill="#1A1410" opacity="0.12"/><circle cx="62.0" cy="23.6" r="0.57" fill="#1A1410" opacity="0.25"/><circle cx="72.6" cy="55.6" r="0.84" fill="#1A1410" opacity="0.13"/><circle cx="59.0" cy="69.6" r="0.57" fill="#1A1410" opacity="0.16"/><circle cx="106.5" cy="112.3" r="0.63" fill="#1A1410" opacity="0.17"/><circle cx="108.2" cy="109.8" r="0.60" fill="#1A1410" opacity="0.25"/><circle cx="52.7" cy="1.3" r="0.62" fill="#1A1410" opacity="0.24"/><circle cx="76.7" cy="17.3" r="1.04" fill="#1A1410" opacity="0.16"/><circle cx="76.3" cy="35.0" r="0.58" fill="#1A1410" opacity="0.23"/><circle cx="53.4" cy="35.5" r="0.82" fill="#1A1410" opacity="0.14"/><circle cx="13.6" cy="90.0" r="0.62" fill="#1A1410" opacity="0.27"/><circle cx="28.6" cy="89.9" r="0.64" fill="#1A1410" opacity="0.26"/><circle cx="21.1" cy="49.3" r="0.52" fill="#1A1410" opacity="0.16"/><circle cx="125.7" cy="101.4" r="0.83" fill="#1A1410" opacity="0.27"/><circle cx="118.6" cy="54.0" r="0.50" fill="#1A1410" opacity="0.22"/><circle cx="36.2" cy="88.8" r="1.04" fill="#1A1410" opacity="0.12"/><circle cx="12.7" cy="53.6" r="0.95" fill="#1A1410" opacity="0.15"/><circle cx="62.2" cy="12.0" r="0.46" fill="#1A1410" opacity="0.22"/><circle cx="120.9" cy="1.7" r="0.82" fill="#1A1410" opacity="0.22"/><circle cx="109.3" cy="97.9" r="0.52" fill="#1A1410" opacity="0.18"/><circle cx="16.1" cy="28.4" r="0.78" fill="#1A1410" opacity="0.22"/><circle cx="112.4" cy="127.2" r="0.54" fill="#1A1410" opacity="0.22"/><circle cx="123.7" cy="58.4" r="0.53" fill="#1A1410" opacity="0.24"/><circle cx="26.1" cy="67.3" r="1.02" fill="#1A1410" opacity="0.15"/><circle cx="49.4" cy="87.6" r="0.56" fill="#1A1410" opacity="0.12"/><circle cx="77.8" cy="45.4" r="0.92" fill="#1A1410" opacity="0.22"/><circle cx="91.6" cy="101.7" r="1.00" fill="#1A1410" opacity="0.21"/><circle cx="126.9" cy="30.2" r="0.62" fill="#1A1410" opacity="0.26"/><circle cx="113.4" cy="121.5" r="0.84" fill="#1A1410" opacity="0.20"/><circle cx="104.8" cy="34.8" r="0.89" fill="#1A1410" opacity="0.11"/><circle cx="70.4" cy="40.8" r="0.78" fill="#1A1410" opacity="0.19"/><circle cx="127.4" cy="101.1" r="0.78" fill="#1A1410" opacity="0.13"/><circle cx="121.4" cy="55.2" r="0.83" fill="#1A1410" opacity="0.26"/><circle cx="49.9" cy="83.3" r="0.61" fill="#1A1410" opacity="0.26"/><circle cx="32.6" cy="3.4" r="0.84" fill="#1A1410" opacity="0.24"/><circle cx="59.6" cy="9.2" r="0.66" fill="#1A1410" opacity="0.22"/></g><rect width="128" height="128" fill="url(#vig-acpillar)"/>
</svg>