<svg xmlns="http://www.w3.org/2000/svg" width="128" height="128" viewBox="0 0 128 128">
<rect width="128" height="128" fill="#CDB992"/>

    <defs>
  <filter id="grain-wsxf9d6n" x="0" y="0" width="100%" height="100%">
    <feTurbulence type="fractalNoise" baseFrequency="0.9" numOctaves="2" seed="48" result="n"/>
    <feColorMatrix in="n" type="matrix" values="0 0 0 0 0.1 0 0 0 0 0.08 0 0 0 0 0.06 0 0 0 0.09 0"/>
    <feComposite operator="over" in2="SourceGraphic"/>
  </filter>
  <filter id="wobble-wsxf9d6n" x="-5%" y="-5%" width="110%" height="110%">
    <feTurbulence type="turbulence" baseFrequency="0.05" numOctaves="2" seed="555" result="t"/>
    <feDisplacementMap in="SourceGraphic" in2="t" scale="2.4"/>
  </filter>
  <pattern id="hatch-wsxf9d6n" width="6" height="6" patternTransform="rotate(45)" patternUnits="userSpaceOnUse">
    <rect width="6" height="6" fill="none"/><line x1="0" y1="0" x2="0" y2="6" stroke="#1A1410" stroke-width="1"/>
  </pattern>
  <pattern id="cross-wsxf9d6n" width="7" height="7" patternUnits="userSpaceOnUse" patternTransform="rotate(45)">
    <line x1="0" y1="0" x2="0" y2="7" stroke="#1A1410" stroke-width="0.9"/><line x1="0" y1="0" x2="7" y2="0" stroke="#1A1410" stroke-width="0.9"/>
  </pattern>
  <radialGradient id="vig-wsxf9d6n" cx="50%" cy="46%" r="72%">
    <stop offset="62%" stop-color="#000000" stop-opacity="0"/>
    <stop offset="100%" stop-color="#000000" stop-opacity="0.26"/>
  </radialGradient>
</defs><ellipse cx="64" cy="68" rx="54" ry="50" fill="#1A1410" opacity="0.18"/>
    <path d="M116.0 64.0 L116.1 79.3 L104.9 90.3 L99.8 105.3 L85.4 110.8 L71.1 113.7 L56.1 118.7 L43.7 108.6 L29.2 104.2 L19.2 92.8 L17.1 77.8 L8.8 64.0 L15.7 49.8 L20.9 36.3 L28.1 22.6 L43.8 19.8 L56.3 10.4 L71.4 12.4 L84.6 18.9 L100.3 22.1 L105.5 37.3 L114.3 49.2 Z" fill="#17171A" stroke="#1A1410" stroke-width="2.4"/>
    <path d="M116.0 64.0 L116.1 79.3 L104.9 90.3 L99.8 105.3 L85.4 110.8 L71.1 113.7 L56.1 118.7 L43.7 108.6 L29.2 104.2 L19.2 92.8 L17.1 77.8 L8.8 64.0 L15.7 49.8 L20.9 36.3 L28.1 22.6 L43.8 19.8 L56.3 10.4 L71.4 12.4 L84.6 18.9 L100.3 22.1 L105.5 37.3 L114.3 49.2 Z" fill="none" stroke="#000" stroke-width="1" opacity="0.25" transform="translate(0 3)"/>
    <path d="M-65.3 -39.5 L-37.3 12.0 L-9.8 64.1" stroke="#000" stroke-width="0.5" fill="none" stroke-linecap="round"/><path d="M-61.9 -33.3 L-34.0 18.5 L-7.3 70.3" stroke="#000" stroke-width="0.5" fill="none" stroke-linecap="round"/><path d="M-58.1 -27.1 L-30.8 24.2 L-3.6 76.7" stroke="#000" stroke-width="0.5" fill="none" stroke-linecap="round"/><path d="M-55.2 -21.1 L-27.5 31.0 L-0.4 82.1" stroke="#000" stroke-width="0.5" fill="none" stroke-linecap="round"/><path d="M-52.5 -14.6 L-24.4 37.4 L2.5 88.9" stroke="#000" stroke-width="0.5" fill="none" stroke-linecap="round"/><path d="M-49.1 -9.0 L-21.4 43.2 L6.1 95.3" stroke="#000" stroke-width="0.5" fill="none" stroke-linecap="round"/><path d="M-45.8 -2.3 L-17.8 49.4 L9.4 101.1" stroke="#000" stroke-width="0.5" fill="none" stroke-linecap="round"/><path d="M-41.7 3.8 L-14.7 55.3 L12.7 107.3" stroke="#000" stroke-width="0.5" fill="none" stroke-linecap="round"/><path d="M-39.1 9.8 L-11.0 61.3 L15.9 113.1" stroke="#000" stroke-width="0.5" fill="none" stroke-linecap="round"/><path d="M-35.1 16.2 L-8.5 67.7 L19.6 119.7" stroke="#000" stroke-width="0.5" fill="none" stroke-linecap="round"/><path d="M-31.8 22.9 L-4.9 74.3 L22.6 125.5" stroke="#000" stroke-width="0.5" fill="none" stroke-linecap="round"/><path d="M-29.5 28.7 L-1.9 80.8 L26.0 132.0" stroke="#000" stroke-width="0.5" fill="none" stroke-linecap="round"/><path d="M-25.7 35.0 L1.3 86.8 L29.1 138.3" stroke="#000" stroke-width="0.5" fill="none" stroke-linecap="round"/><path d="M-22.7 41.3 L5.0 92.7 L32.7 144.7" stroke="#000" stroke-width="0.5" fill="none" stroke-linecap="round"/><path d="M-19.4 47.6 L8.7 99.0 L35.7 150.9" stroke="#000" stroke-width="0.5" fill="none" stroke-linecap="round"/><path d="M-16.2 53.7 L11.5 104.9 L39.0 156.3" stroke="#000" stroke-width="0.5" fill="none" stroke-linecap="round"/><path d="M-12.2 59.6 L14.9 111.5 L42.3 163.3" stroke="#000" stroke-width="0.5" fill="none" stroke-linecap="round"/>
    <circle cx="64" cy="64" r="34" fill="none" stroke="#1A1410" stroke-width="2"/>
    <circle cx="64" cy="64" r="30" fill="none" stroke="#1A1410" stroke-width="0.8" opacity="0.6"/>
    <path d="M50 52 q14 -12 28 0 q-14 8 -28 0" stroke="#1A1410" stroke-width="1.6" fill="none"/>
    <path d="M40 30 L58 52 L52 66 L70 88" stroke="#1A1410" stroke-width="2" fill="none" stroke-linecap="round" stroke-linejoin="round" /><path d="M84 40 L70 58" stroke="#1A1410" stroke-width="1.6" fill="none" stroke-linecap="round" stroke-linejoin="round" /><g opacity="0.5"><circle cx="13.3" cy="30.8" r="0.66" fill="#1A1410" opacity="0.18"/><circle cx="113.2" cy="6.5" r="0.91" fill="#1A1410" opacity="0.14"/><circle cx="120.3" cy="79.2" r="0.83" fill="#1A1410" opacity="0.27"/><circle cx="53.2" cy="72.4" r="0.60" fill="#1A1410" opacity="0.18"/><circle cx="43.1" cy="5.9" r="0.75" fill="#1A1410" opacity="0.25"/><circle cx="43.3" cy="102.0" r="0.79" fill="#1A1410" opacity="0.22"/><circle cx="89.9" cy="43.8" r="0.90" fill="#1A1410" opacity="0.24"/><circle cx="26.4" cy="108.4" r="0.45" fill="#1A1410" opacity="0.17"/><circle cx="101.2" cy="103.0" r="1.00" fill="#1A1410" opacity="0.16"/><circle cx="63.3" cy="93.7" r="0.56" fill="#1A1410" opacity="0.24"/><circle cx="40.8" cy="41.7" r="0.54" fill="#1A1410" opacity="0.13"/><circle cx="28.0" cy="123.6" r="0.72" fill="#1A1410" opacity="0.12"/><circle cx="43.0" cy="28.1" r="0.90" fill="#1A1410" opacity="0.23"/><circle cx="0.3" cy="45.7" r="0.99" fill="#1A1410" opacity="0.26"/><circle cx="62.7" cy="95.6" r="0.59" fill="#1A1410" opacity="0.21"/><circle cx="125.8" cy="1.9" r="0.44" fill="#1A1410" opacity="0.17"/><circle cx="102.2" cy="10.3" r="1.05" fill="#1A1410" opacity="0.24"/><circle cx="65.7" cy="95.2" r="0.40" fill="#1A1410" opacity="0.14"/><circle cx="95.8" cy="95.0" r="0.68" fill="#1A1410" opacity="0.25"/><circle cx="20.8" cy="81.8" r="0.50" fill="#1A1410" opacity="0.27"/><circle cx="72.9" cy="113.3" r="1.04" fill="#1A1410" opacity="0.25"/><circle cx="90.2" cy="17.1" r="0.97" fill="#1A1410" opacity="0.25"/><circle cx="49.7" cy="69.6" r="0.71" fill="#1A1410" opacity="0.25"/><circle cx="5.3" cy="51.8" r="1.03" fill="#1A1410" opacity="0.20"/><circle cx="28.1" cy="6.5" r="0.36" fill="#1A1410" opacity="0.21"/><circle cx="127.7" cy="66.1" r="0.51" fill="#1A1410" opacity="0.21"/><circle cx="117.6" cy="15.2" r="0.57" fill="#1A1410" opacity="0.26"/><circle cx="73.3" cy="75.2" r="0.92" fill="#1A1410" opacity="0.18"/><circle cx="58.5" cy="32.5" r="0.74" fill="#1A1410" opacity="0.13"/><circle cx="11.6" cy="32.2" r="0.58" fill="#1A1410" opacity="0.12"/><circle cx="59.5" cy="27.2" r="0.37" fill="#1A1410" opacity="0.16"/><circle cx="87.3" cy="89.6" r="0.93" fill="#1A1410" opacity="0.13"/><circle cx="12.4" cy="57.6" r="0.60" fill="#1A1410" opacity="0.12"/><circle cx="1.7" cy="95.0" r="0.97" fill="#1A1410" opacity="0.15"/><circle cx="57.3" cy="117.3" r="1.05" fill="#1A1410" opacity="0.26"/><circle cx="97.1" cy="23.8" r="0.52" fill="#1A1410" opacity="0.18"/><circle cx="14.8" cy="92.5" r="1.04" fill="#1A1410" opacity="0.23"/><circle cx="60.1" cy="106.2" r="0.55" fill="#1A1410" opacity="0.24"/><circle cx="93.3" cy="121.7" r="1.00" fill="#1A1410" opacity="0.16"/><circle cx="103.5" cy="76.9" r="1.03" fill="#1A1410" opacity="0.12"/><circle cx="39.9" cy="86.2" r="0.38" fill="#1A1410" opacity="0.21"/><circle cx="96.3" cy="76.2" r="0.42" fill="#1A1410" opacity="0.25"/><circle cx="42.0" cy="0.0" r="0.37" fill="#1A1410" opacity="0.21"/><circle cx="57.8" cy="23.4" r="0.59" fill="#1A1410" opacity="0.12"/><circle cx="29.0" cy="85.8" r="0.86" fill="#1A1410" opacity="0.23"/><circle cx="2.2" cy="12.8" r="0.84" fill="#1A1410" opacity="0.14"/><circle cx="125.6" cy="53.5" r="0.41" fill="#1A1410" opacity="0.15"/><circle cx="92.6" cy="46.1" r="0.90" fill="#1A1410" opacity="0.13"/><circle cx="1.1" cy="39.0" r="0.44" fill="#1A1410" opacity="0.25"/><circle cx="8.3" cy="29.9" r="1.04" fill="#1A1410" opacity="0.27"/><circle cx="15.7" cy="117.3" r="0.86" fill="#1A1410" opacity="0.11"/><circle cx="110.0" cy="72.5" r="0.52" fill="#1A1410" opacity="0.13"/><circle cx="59.6" cy="13.0" r="0.76" fill="#1A1410" opacity="0.26"/><circle cx="10.3" cy="67.1" r="0.85" fill="#1A1410" opacity="0.27"/><circle cx="70.7" cy="38.1" r="0.76" fill="#1A1410" opacity="0.22"/><circle cx="62.2" cy="91.1" r="0.58" fill="#1A1410" opacity="0.17"/><circle cx="19.9" cy="100.9" r="0.87" fill="#1A1410" opacity="0.15"/><circle cx="80.6" cy="28.9" r="0.54" fill="#1A1410" opacity="0.28"/><circle cx="14.1" cy="21.2" r="0.75" fill="#1A1410" opacity="0.24"/><circle cx="11.6" cy="51.5" r="0.65" fill="#1A1410" opacity="0.21"/><circle cx="7.0" cy="122.4" r="0.55" fill="#1A1410" opacity="0.26"/><circle cx="80.2" cy="79.1" r="0.75" fill="#1A1410" opacity="0.14"/><circle cx="3.2" cy="111.7" r="0.77" fill="#1A1410" opacity="0.17"/><circle cx="18.5" cy="120.3" r="1.03" fill="#1A1410" opacity="0.27"/><circle cx="6.4" cy="48.9" r="0.45" fill="#1A1410" opacity="0.14"/><circle cx="76.1" cy="70.5" r="0.41" fill="#1A1410" opacity="0.26"/><circle cx="27.7" cy="29.0" r="0.75" fill="#1A1410" opacity="0.27"/><circle cx="3.6" cy="108.6" r="0.92" fill="#1A1410" opacity="0.25"/><circle cx="86.4" cy="21.9" r="0.44" fill="#1A1410" opacity="0.21"/><circle cx="43.5" cy="64.8" r="0.55" fill="#1A1410" opacity="0.17"/><circle cx="47.5" cy="89.8" r="0.86" fill="#1A1410" opacity="0.27"/><circle cx="29.8" cy="6.5" r="1.03" fill="#1A1410" opacity="0.25"/><circle cx="78.9" cy="122.9" r="0.79" fill="#1A1410" opacity="0.16"/><circle cx="29.7" cy="111.4" r="0.99" fill="#1A1410" opacity="0.21"/><circle cx="14.1" cy="115.7" r="0.37" fill="#1A1410" opacity="0.20"/><circle cx="99.7" cy="16.0" r="0.75" fill="#1A1410" opacity="0.20"/><circle cx="104.3" cy="71.0" r="0.76" fill="#1A1410" opacity="0.24"/><circle cx="42.3" cy="21.7" r="0.51" fill="#1A1410" opacity="0.14"/><circle cx="6.2" cy="60.4" r="0.67" fill="#1A1410" opacity="0.26"/><circle cx="84.6" cy="19.1" r="0.87" fill="#1A1410" opacity="0.24"/><circle cx="63.8" cy="26.6" r="0.69" fill="#1A1410" opacity="0.17"/><circle cx="11.3" cy="71.0" r="0.88" fill="#1A1410" opacity="0.24"/><circle cx="67.7" cy="84.1" r="0.78" fill="#1A1410" opacity="0.12"/><circle cx="124.7" cy="34.2" r="0.67" fill="#1A1410" opacity="0.24"/><circle cx="118.0" cy="112.4" r="0.83" fill="#1A1410" opacity="0.19"/><circle cx="115.3" cy="114.4" r="0.83" fill="#1A1410" opacity="0.14"/><circle cx="83.6" cy="90.3" r="1.02" fill="#1A1410" opacity="0.27"/><circle cx="85.4" cy="112.4" r="0.89" fill="#1A1410" opacity="0.12"/><circle cx="44.7" cy="8.1" r="0.86" fill="#1A1410" opacity="0.27"/><circle cx="52.6" cy="2.7" r="0.82" fill="#1A1410" opacity="0.17"/></g><rect width="128" height="128" fill="url(#vig-wsxf9d6n)"/>
</svg>