<svg xmlns="http://www.w3.org/2000/svg" width="128" height="128" viewBox="0 0 128 128">
<rect width="128" height="128" fill="#CDB992"/>

    <defs>
  <filter id="grain-wsgj3u4y" x="0" y="0" width="100%" height="100%">
    <feTurbulence type="fractalNoise" baseFrequency="0.9" numOctaves="2" seed="885" result="n"/>
    <feColorMatrix in="n" type="matrix" values="0 0 0 0 0.1 0 0 0 0 0.08 0 0 0 0 0.06 0 0 0 0.09 0"/>
    <feComposite operator="over" in2="SourceGraphic"/>
  </filter>
  <filter id="wobble-wsgj3u4y" x="-5%" y="-5%" width="110%" height="110%">
    <feTurbulence type="turbulence" baseFrequency="0.05" numOctaves="2" seed="692" result="t"/>
    <feDisplacementMap in="SourceGraphic" in2="t" scale="2.4"/>
  </filter>
  <pattern id="hatch-wsgj3u4y" width="6" height="6" patternTransform="rotate(45)" patternUnits="userSpaceOnUse">
    <rect width="6" height="6" fill="none"/><line x1="0" y1="0" x2="0" y2="6" stroke="#1A1410" stroke-width="1"/>
  </pattern>
  <pattern id="cross-wsgj3u4y" width="7" height="7" patternUnits="userSpaceOnUse" patternTransform="rotate(45)">
    <line x1="0" y1="0" x2="0" y2="7" stroke="#1A1410" stroke-width="0.9"/><line x1="0" y1="0" x2="7" y2="0" stroke="#1A1410" stroke-width="0.9"/>
  </pattern>
  <radialGradient id="vig-wsgj3u4y" cx="50%" cy="46%" r="72%">
    <stop offset="62%" stop-color="#000000" stop-opacity="0"/>
    <stop offset="100%" stop-color="#000000" stop-opacity="0.26"/>
  </radialGradient>
</defs><ellipse cx="64" cy="68" rx="54" ry="50" fill="#1A1410" opacity="0.18"/>
    <path d="M116.0 64.0 L116.1 79.3 L104.9 90.3 L99.8 105.3 L85.4 110.8 L71.1 113.7 L56.1 118.7 L43.7 108.6 L29.2 104.2 L19.2 92.8 L17.1 77.8 L8.8 64.0 L15.7 49.8 L20.9 36.3 L28.1 22.6 L43.8 19.8 L56.3 10.4 L71.4 12.4 L84.6 18.9 L100.3 22.1 L105.5 37.3 L114.3 49.2 Z" fill="#8D8A82" stroke="#1A1410" stroke-width="2.4"/>
    <path d="M116.0 64.0 L116.1 79.3 L104.9 90.3 L99.8 105.3 L85.4 110.8 L71.1 113.7 L56.1 118.7 L43.7 108.6 L29.2 104.2 L19.2 92.8 L17.1 77.8 L8.8 64.0 L15.7 49.8 L20.9 36.3 L28.1 22.6 L43.8 19.8 L56.3 10.4 L71.4 12.4 L84.6 18.9 L100.3 22.1 L105.5 37.3 L114.3 49.2 Z" fill="none" stroke="#000" stroke-width="1" opacity="0.25" transform="translate(0 3)"/>
    <path d="M-65.3 -39.3 L-37.9 12.6 L-9.9 63.7" stroke="#000" stroke-width="0.5" fill="none" stroke-linecap="round"/><path d="M-61.5 -32.8 L-34.0 18.1 L-6.5 70.2" stroke="#000" stroke-width="0.5" fill="none" stroke-linecap="round"/><path d="M-58.5 -26.6 L-30.7 24.6 L-3.3 76.0" stroke="#000" stroke-width="0.5" fill="none" stroke-linecap="round"/><path d="M-55.7 -20.7 L-28.2 31.2 L-0.4 82.4" stroke="#000" stroke-width="0.5" fill="none" stroke-linecap="round"/><path d="M-51.5 -14.2 L-24.4 37.1 L3.1 88.3" stroke="#000" stroke-width="0.5" fill="none" stroke-linecap="round"/><path d="M-48.8 -8.0 L-21.7 43.5 L5.8 95.0" stroke="#000" stroke-width="0.5" fill="none" stroke-linecap="round"/><path d="M-45.6 -2.7 L-17.7 49.7 L9.2 101.6" stroke="#000" stroke-width="0.5" fill="none" stroke-linecap="round"/><path d="M-42.2 4.1 L-14.4 55.2 L13.0 107.4" stroke="#000" stroke-width="0.5" fill="none" stroke-linecap="round"/><path d="M-38.6 9.6 L-11.9 61.3 L15.7 113.7" stroke="#000" stroke-width="0.5" fill="none" stroke-linecap="round"/><path d="M-35.2 15.9 L-8.0 68.1 L19.4 119.6" stroke="#000" stroke-width="0.5" fill="none" stroke-linecap="round"/><path d="M-32.0 22.6 L-5.2 73.8 L23.0 125.8" stroke="#000" stroke-width="0.5" fill="none" stroke-linecap="round"/><path d="M-29.3 28.5 L-1.8 80.4 L25.9 132.3" stroke="#000" stroke-width="0.5" fill="none" stroke-linecap="round"/><path d="M-26.2 34.3 L1.9 86.0 L29.3 138.3" stroke="#000" stroke-width="0.5" fill="none" stroke-linecap="round"/><path d="M-22.6 40.5 L5.2 92.9 L32.9 144.7" stroke="#000" stroke-width="0.5" fill="none" stroke-linecap="round"/><path d="M-19.3 47.3 L7.9 98.9 L35.7 150.1" stroke="#000" stroke-width="0.5" fill="none" stroke-linecap="round"/><path d="M-15.5 53.7 L11.6 104.9 L38.8 156.5" stroke="#000" stroke-width="0.5" fill="none" stroke-linecap="round"/><path d="M-12.3 59.3 L14.5 111.2 L42.9 162.9" stroke="#000" stroke-width="0.5" fill="none" stroke-linecap="round"/>
    <circle cx="64" cy="64" r="34" fill="none" stroke="#1A1410" stroke-width="2"/>
    <circle cx="64" cy="64" r="30" fill="none" stroke="#1A1410" stroke-width="0.8" opacity="0.6"/>
    <path d="M50 52 q14 -12 28 0 q-14 8 -28 0" stroke="#1A1410" stroke-width="1.6" fill="none"/>
    <path d="M36 28 L58 52 L50 68 L72 92" stroke="#1A1410" stroke-width="2.6" fill="none" stroke-linecap="round" stroke-linejoin="round" /><path d="M92 44 L68 60 L74 78" stroke="#1A1410" stroke-width="2.2" fill="none" stroke-linecap="round" stroke-linejoin="round" /><path d="M30 74 L52 66" stroke="#1A1410" stroke-width="2" fill="none" stroke-linecap="round" stroke-linejoin="round" /><path d="M84 88 L96 96 L82 100 Z" fill="#8D8A82" stroke="#1A1410" stroke-width="1.6"/><g opacity="0.5"><circle cx="38.2" cy="16.2" r="0.81" fill="#1A1410" opacity="0.25"/><circle cx="18.2" cy="100.4" r="0.88" fill="#1A1410" opacity="0.13"/><circle cx="24.7" cy="24.2" r="0.78" fill="#1A1410" opacity="0.26"/><circle cx="2.2" cy="63.8" r="0.63" fill="#1A1410" opacity="0.27"/><circle cx="126.4" cy="117.9" r="0.43" fill="#1A1410" opacity="0.17"/><circle cx="36.7" cy="82.3" r="0.60" fill="#1A1410" opacity="0.20"/><circle cx="51.0" cy="31.9" r="0.44" fill="#1A1410" opacity="0.17"/><circle cx="14.4" cy="100.1" r="0.36" fill="#1A1410" opacity="0.22"/><circle cx="6.8" cy="122.1" r="0.55" fill="#1A1410" opacity="0.26"/><circle cx="126.6" cy="42.8" r="0.41" fill="#1A1410" opacity="0.20"/><circle cx="55.1" cy="37.0" r="0.38" fill="#1A1410" opacity="0.15"/><circle cx="16.8" cy="36.2" r="0.81" fill="#1A1410" opacity="0.25"/><circle cx="30.8" cy="17.5" r="0.75" fill="#1A1410" opacity="0.19"/><circle cx="4.1" cy="66.0" r="1.03" fill="#1A1410" opacity="0.17"/><circle cx="41.0" cy="126.6" r="0.48" fill="#1A1410" opacity="0.22"/><circle cx="98.3" cy="12.9" r="0.52" fill="#1A1410" opacity="0.23"/><circle cx="98.6" cy="25.7" r="0.89" fill="#1A1410" opacity="0.17"/><circle cx="29.5" cy="38.7" r="0.94" fill="#1A1410" opacity="0.27"/><circle cx="69.5" cy="93.8" r="0.77" fill="#1A1410" opacity="0.27"/><circle cx="10.3" cy="56.3" r="0.74" fill="#1A1410" opacity="0.12"/><circle cx="49.9" cy="120.1" r="0.72" fill="#1A1410" opacity="0.14"/><circle cx="56.1" cy="78.2" r="1.00" fill="#1A1410" opacity="0.12"/><circle cx="12.3" cy="82.8" r="0.78" fill="#1A1410" opacity="0.28"/><circle cx="50.8" cy="70.0" r="0.45" fill="#1A1410" opacity="0.15"/><circle cx="67.5" cy="110.8" r="1.01" fill="#1A1410" opacity="0.19"/><circle cx="65.7" cy="108.5" r="0.71" fill="#1A1410" opacity="0.15"/><circle cx="12.7" cy="68.9" r="0.59" fill="#1A1410" opacity="0.16"/><circle cx="48.1" cy="121.3" r="0.77" fill="#1A1410" opacity="0.28"/><circle cx="55.1" cy="104.9" r="0.48" fill="#1A1410" opacity="0.22"/><circle cx="38.9" cy="90.8" r="0.38" fill="#1A1410" opacity="0.11"/><circle cx="93.0" cy="58.7" r="0.42" fill="#1A1410" opacity="0.18"/><circle cx="39.7" cy="52.7" r="0.87" fill="#1A1410" opacity="0.20"/><circle cx="86.7" cy="1.7" r="0.99" fill="#1A1410" opacity="0.27"/><circle cx="87.3" cy="87.1" r="1.00" fill="#1A1410" opacity="0.23"/><circle cx="65.0" cy="45.2" r="0.77" fill="#1A1410" opacity="0.12"/><circle cx="33.2" cy="4.0" r="0.99" fill="#1A1410" opacity="0.15"/><circle cx="67.6" cy="124.6" r="0.58" fill="#1A1410" opacity="0.20"/><circle cx="61.6" cy="64.4" r="0.37" fill="#1A1410" opacity="0.21"/><circle cx="95.9" cy="79.3" r="0.97" fill="#1A1410" opacity="0.20"/><circle cx="75.6" cy="15.8" r="0.48" fill="#1A1410" opacity="0.25"/><circle cx="103.6" cy="78.4" r="0.89" fill="#1A1410" opacity="0.24"/><circle cx="92.7" cy="22.3" r="0.77" fill="#1A1410" opacity="0.26"/><circle cx="80.4" cy="12.4" r="0.44" fill="#1A1410" opacity="0.17"/><circle cx="26.9" cy="3.1" r="0.92" fill="#1A1410" opacity="0.24"/><circle cx="86.9" cy="101.5" r="0.61" fill="#1A1410" opacity="0.21"/><circle cx="3.8" cy="117.7" r="0.44" fill="#1A1410" opacity="0.27"/><circle cx="49.5" cy="15.5" r="0.67" fill="#1A1410" opacity="0.22"/><circle cx="35.3" cy="126.9" r="0.86" fill="#1A1410" opacity="0.26"/><circle cx="53.3" cy="44.2" r="0.48" fill="#1A1410" opacity="0.22"/><circle cx="89.7" cy="111.1" r="1.01" fill="#1A1410" opacity="0.18"/><circle cx="112.4" cy="75.2" r="1.01" fill="#1A1410" opacity="0.22"/><circle cx="21.8" cy="14.1" r="1.03" fill="#1A1410" opacity="0.19"/><circle cx="44.8" cy="12.5" r="0.87" fill="#1A1410" opacity="0.23"/><circle cx="10.8" cy="69.0" r="0.72" fill="#1A1410" opacity="0.24"/><circle cx="84.2" cy="14.7" r="0.44" fill="#1A1410" opacity="0.20"/><circle cx="0.7" cy="94.1" r="0.44" fill="#1A1410" opacity="0.26"/><circle cx="71.2" cy="127.1" r="1.03" fill="#1A1410" opacity="0.16"/><circle cx="90.7" cy="120.1" r="0.48" fill="#1A1410" opacity="0.19"/><circle cx="31.5" cy="101.6" r="0.65" fill="#1A1410" opacity="0.24"/><circle cx="94.7" cy="106.5" r="0.44" fill="#1A1410" opacity="0.22"/><circle cx="101.1" cy="66.9" r="0.66" fill="#1A1410" opacity="0.18"/><circle cx="82.4" cy="17.9" r="0.88" fill="#1A1410" opacity="0.13"/><circle cx="50.5" cy="43.7" r="1.01" fill="#1A1410" opacity="0.21"/><circle cx="1.3" cy="45.1" r="0.84" fill="#1A1410" opacity="0.12"/><circle cx="74.3" cy="108.4" r="0.74" fill="#1A1410" opacity="0.25"/><circle cx="87.1" cy="60.6" r="0.73" fill="#1A1410" opacity="0.28"/><circle cx="122.9" cy="111.1" r="0.79" fill="#1A1410" opacity="0.24"/><circle cx="31.2" cy="113.8" r="0.63" fill="#1A1410" opacity="0.20"/><circle cx="33.6" cy="84.3" r="1.05" fill="#1A1410" opacity="0.28"/><circle cx="85.6" cy="76.1" r="0.95" fill="#1A1410" opacity="0.22"/><circle cx="85.5" cy="69.1" r="0.57" fill="#1A1410" opacity="0.26"/><circle cx="127.7" cy="27.5" r="0.40" fill="#1A1410" opacity="0.12"/><circle cx="38.9" cy="125.6" r="0.79" fill="#1A1410" opacity="0.23"/><circle cx="113.3" cy="64.6" r="0.90" fill="#1A1410" opacity="0.15"/><circle cx="51.6" cy="68.0" r="0.96" fill="#1A1410" opacity="0.17"/><circle cx="118.2" cy="42.8" r="0.64" fill="#1A1410" opacity="0.26"/><circle cx="62.7" cy="41.0" r="0.50" fill="#1A1410" opacity="0.22"/><circle cx="107.9" cy="94.7" r="0.60" fill="#1A1410" opacity="0.22"/><circle cx="47.9" cy="92.9" r="0.87" fill="#1A1410" opacity="0.25"/><circle cx="70.4" cy="107.7" r="0.66" fill="#1A1410" opacity="0.19"/><circle cx="106.6" cy="46.4" r="0.74" fill="#1A1410" opacity="0.19"/><circle cx="0.1" cy="102.5" r="0.72" fill="#1A1410" opacity="0.16"/><circle cx="92.0" cy="45.0" r="0.71" fill="#1A1410" opacity="0.16"/><circle cx="6.9" cy="124.1" r="0.62" fill="#1A1410" opacity="0.20"/><circle cx="70.1" cy="122.5" r="0.66" fill="#1A1410" opacity="0.12"/><circle cx="102.4" cy="90.6" r="0.78" fill="#1A1410" opacity="0.14"/><circle cx="107.3" cy="122.7" r="0.45" fill="#1A1410" opacity="0.26"/><circle cx="23.7" cy="97.0" r="0.49" fill="#1A1410" opacity="0.17"/><circle cx="91.8" cy="73.3" r="0.37" fill="#1A1410" opacity="0.15"/><circle cx="24.7" cy="19.3" r="0.49" fill="#1A1410" opacity="0.17"/></g><rect width="128" height="128" fill="url(#vig-wsgj3u4y)"/>
</svg>