<svg xmlns="http://www.w3.org/2000/svg" width="128" height="128" viewBox="0 0 128 128">
<rect width="128" height="128" fill="#CDB992"/>

    <defs>
  <filter id="grain-wsr8di2b" x="0" y="0" width="100%" height="100%">
    <feTurbulence type="fractalNoise" baseFrequency="0.9" numOctaves="2" seed="866" result="n"/>
    <feColorMatrix in="n" type="matrix" values="0 0 0 0 0.1 0 0 0 0 0.08 0 0 0 0 0.06 0 0 0 0.09 0"/>
    <feComposite operator="over" in2="SourceGraphic"/>
  </filter>
  <filter id="wobble-wsr8di2b" x="-5%" y="-5%" width="110%" height="110%">
    <feTurbulence type="turbulence" baseFrequency="0.05" numOctaves="2" seed="273" result="t"/>
    <feDisplacementMap in="SourceGraphic" in2="t" scale="2.4"/>
  </filter>
  <pattern id="hatch-wsr8di2b" width="6" height="6" patternTransform="rotate(45)" patternUnits="userSpaceOnUse">
    <rect width="6" height="6" fill="none"/><line x1="0" y1="0" x2="0" y2="6" stroke="#1A1410" stroke-width="1"/>
  </pattern>
  <pattern id="cross-wsr8di2b" width="7" height="7" patternUnits="userSpaceOnUse" patternTransform="rotate(45)">
    <line x1="0" y1="0" x2="0" y2="7" stroke="#1A1410" stroke-width="0.9"/><line x1="0" y1="0" x2="7" y2="0" stroke="#1A1410" stroke-width="0.9"/>
  </pattern>
  <radialGradient id="vig-wsr8di2b" cx="50%" cy="46%" r="72%">
    <stop offset="62%" stop-color="#000000" stop-opacity="0"/>
    <stop offset="100%" stop-color="#000000" stop-opacity="0.26"/>
  </radialGradient>
</defs><ellipse cx="64" cy="68" rx="54" ry="50" fill="#1A1410" opacity="0.18"/>
    <path d="M116.0 64.0 L116.1 79.3 L104.9 90.3 L99.8 105.3 L85.4 110.8 L71.1 113.7 L56.1 118.7 L43.7 108.6 L29.2 104.2 L19.2 92.8 L17.1 77.8 L8.8 64.0 L15.7 49.8 L20.9 36.3 L28.1 22.6 L43.8 19.8 L56.3 10.4 L71.4 12.4 L84.6 18.9 L100.3 22.1 L105.5 37.3 L114.3 49.2 Z" fill="#3E6B5A" stroke="#1A1410" stroke-width="2.4"/>
    <path d="M116.0 64.0 L116.1 79.3 L104.9 90.3 L99.8 105.3 L85.4 110.8 L71.1 113.7 L56.1 118.7 L43.7 108.6 L29.2 104.2 L19.2 92.8 L17.1 77.8 L8.8 64.0 L15.7 49.8 L20.9 36.3 L28.1 22.6 L43.8 19.8 L56.3 10.4 L71.4 12.4 L84.6 18.9 L100.3 22.1 L105.5 37.3 L114.3 49.2 Z" fill="none" stroke="#000" stroke-width="1" opacity="0.25" transform="translate(0 3)"/>
    <path d="M-65.4 -39.1 L-37.6 12.6 L-10.4 64.1" stroke="#000" stroke-width="0.5" fill="none" stroke-linecap="round"/><path d="M-61.7 -33.5 L-34.7 18.0 L-7.3 70.3" stroke="#000" stroke-width="0.5" fill="none" stroke-linecap="round"/><path d="M-58.1 -27.1 L-30.6 24.3 L-4.1 76.3" stroke="#000" stroke-width="0.5" fill="none" stroke-linecap="round"/><path d="M-54.9 -21.0 L-28.1 30.8 L-0.4 82.3" stroke="#000" stroke-width="0.5" fill="none" stroke-linecap="round"/><path d="M-51.8 -14.4 L-24.9 36.6 L2.7 88.9" stroke="#000" stroke-width="0.5" fill="none" stroke-linecap="round"/><path d="M-48.8 -8.5 L-21.6 43.5 L6.2 94.7" stroke="#000" stroke-width="0.5" fill="none" stroke-linecap="round"/><path d="M-45.7 -2.2 L-18.0 49.1 L10.0 101.1" stroke="#000" stroke-width="0.5" fill="none" stroke-linecap="round"/><path d="M-41.8 3.4 L-15.0 55.3 L13.2 106.8" stroke="#000" stroke-width="0.5" fill="none" stroke-linecap="round"/><path d="M-39.3 10.0 L-10.9 61.5 L16.0 113.5" stroke="#000" stroke-width="0.5" fill="none" stroke-linecap="round"/><path d="M-35.6 16.4 L-7.9 68.1 L19.5 119.3" stroke="#000" stroke-width="0.5" fill="none" stroke-linecap="round"/><path d="M-32.5 22.7 L-4.8 74.0 L22.5 126.1" stroke="#000" stroke-width="0.5" fill="none" stroke-linecap="round"/><path d="M-28.6 28.6 L-1.2 80.4 L26.4 131.9" stroke="#000" stroke-width="0.5" fill="none" stroke-linecap="round"/><path d="M-25.5 35.0 L1.3 86.7 L29.4 138.1" stroke="#000" stroke-width="0.5" fill="none" stroke-linecap="round"/><path d="M-22.0 41.3 L5.2 93.0 L32.4 144.2" stroke="#000" stroke-width="0.5" fill="none" stroke-linecap="round"/><path d="M-19.1 47.1 L8.8 99.0 L35.6 150.4" stroke="#000" stroke-width="0.5" fill="none" stroke-linecap="round"/><path d="M-16.3 53.5 L11.5 104.8 L39.5 156.6" stroke="#000" stroke-width="0.5" fill="none" stroke-linecap="round"/><path d="M-12.8 59.3 L14.9 110.8 L42.2 162.5" stroke="#000" stroke-width="0.5" fill="none" stroke-linecap="round"/>
    <circle cx="64" cy="64" r="34" fill="none" stroke="#1A1410" stroke-width="2"/>
    <circle cx="64" cy="64" r="30" fill="none" stroke="#1A1410" stroke-width="0.8" opacity="0.6"/>
    <path d="M50 52 q14 -12 28 0 q-14 8 -28 0" stroke="#1A1410" stroke-width="1.6" fill="none"/>
    <path d="M40 30 L58 52 L52 66 L70 88" stroke="#1A1410" stroke-width="2" fill="none" stroke-linecap="round" stroke-linejoin="round" /><path d="M84 40 L70 58" stroke="#1A1410" stroke-width="1.6" fill="none" stroke-linecap="round" stroke-linejoin="round" /><g opacity="0.5"><circle cx="122.2" cy="33.4" r="0.60" fill="#1A1410" opacity="0.19"/><circle cx="125.0" cy="76.4" r="0.97" fill="#1A1410" opacity="0.27"/><circle cx="124.5" cy="71.8" r="0.77" fill="#1A1410" opacity="0.22"/><circle cx="1.8" cy="108.2" r="0.46" fill="#1A1410" opacity="0.16"/><circle cx="52.7" cy="123.0" r="0.36" fill="#1A1410" opacity="0.17"/><circle cx="86.4" cy="101.3" r="0.45" fill="#1A1410" opacity="0.22"/><circle cx="100.5" cy="103.5" r="0.71" fill="#1A1410" opacity="0.24"/><circle cx="11.3" cy="29.5" r="0.45" fill="#1A1410" opacity="0.17"/><circle cx="117.0" cy="122.6" r="0.81" fill="#1A1410" opacity="0.19"/><circle cx="8.1" cy="2.0" r="0.84" fill="#1A1410" opacity="0.25"/><circle cx="76.8" cy="22.6" r="0.66" fill="#1A1410" opacity="0.24"/><circle cx="88.7" cy="36.9" r="0.63" fill="#1A1410" opacity="0.26"/><circle cx="41.6" cy="86.6" r="0.61" fill="#1A1410" opacity="0.11"/><circle cx="63.4" cy="99.0" r="0.77" fill="#1A1410" opacity="0.18"/><circle cx="29.1" cy="82.8" r="0.58" fill="#1A1410" opacity="0.24"/><circle cx="94.5" cy="35.9" r="0.68" fill="#1A1410" opacity="0.27"/><circle cx="60.6" cy="74.1" r="0.64" fill="#1A1410" opacity="0.16"/><circle cx="83.2" cy="108.1" r="0.99" fill="#1A1410" opacity="0.12"/><circle cx="21.0" cy="47.9" r="0.89" fill="#1A1410" opacity="0.27"/><circle cx="37.0" cy="23.4" r="0.68" fill="#1A1410" opacity="0.13"/><circle cx="55.8" cy="9.8" r="0.57" fill="#1A1410" opacity="0.19"/><circle cx="37.0" cy="55.9" r="0.91" fill="#1A1410" opacity="0.12"/><circle cx="60.7" cy="33.1" r="0.87" fill="#1A1410" opacity="0.17"/><circle cx="97.0" cy="28.9" r="0.53" fill="#1A1410" opacity="0.19"/><circle cx="127.3" cy="108.9" r="0.48" fill="#1A1410" opacity="0.23"/><circle cx="62.4" cy="50.5" r="0.45" fill="#1A1410" opacity="0.13"/><circle cx="112.4" cy="67.7" r="0.50" fill="#1A1410" opacity="0.23"/><circle cx="30.6" cy="64.5" r="0.46" fill="#1A1410" opacity="0.25"/><circle cx="4.3" cy="46.8" r="0.53" fill="#1A1410" opacity="0.24"/><circle cx="46.8" cy="7.9" r="0.77" fill="#1A1410" opacity="0.28"/><circle cx="101.7" cy="10.4" r="0.84" fill="#1A1410" opacity="0.14"/><circle cx="74.0" cy="100.7" r="0.54" fill="#1A1410" opacity="0.21"/><circle cx="102.4" cy="60.6" r="1.01" fill="#1A1410" opacity="0.25"/><circle cx="104.0" cy="57.3" r="0.64" fill="#1A1410" opacity="0.22"/><circle cx="126.5" cy="125.8" r="0.97" fill="#1A1410" opacity="0.19"/><circle cx="80.5" cy="10.5" r="0.71" fill="#1A1410" opacity="0.19"/><circle cx="27.3" cy="29.9" r="0.87" fill="#1A1410" opacity="0.20"/><circle cx="89.6" cy="17.7" r="0.58" fill="#1A1410" opacity="0.22"/><circle cx="50.0" cy="90.9" r="0.86" fill="#1A1410" opacity="0.26"/><circle cx="0.8" cy="81.5" r="0.39" fill="#1A1410" opacity="0.17"/><circle cx="95.8" cy="52.4" r="1.02" fill="#1A1410" opacity="0.28"/><circle cx="77.2" cy="47.8" r="0.96" fill="#1A1410" opacity="0.14"/><circle cx="3.6" cy="77.6" r="0.54" fill="#1A1410" opacity="0.14"/><circle cx="65.9" cy="57.6" r="0.53" fill="#1A1410" opacity="0.22"/><circle cx="40.3" cy="62.8" r="0.71" fill="#1A1410" opacity="0.19"/><circle cx="120.8" cy="102.5" r="0.78" fill="#1A1410" opacity="0.13"/><circle cx="54.7" cy="27.1" r="0.87" fill="#1A1410" opacity="0.20"/><circle cx="96.0" cy="117.0" r="0.39" fill="#1A1410" opacity="0.15"/><circle cx="95.6" cy="8.0" r="0.56" fill="#1A1410" opacity="0.15"/><circle cx="10.2" cy="125.6" r="0.39" fill="#1A1410" opacity="0.26"/><circle cx="61.3" cy="121.3" r="0.67" fill="#1A1410" opacity="0.20"/><circle cx="91.7" cy="57.3" r="0.50" fill="#1A1410" opacity="0.16"/><circle cx="22.8" cy="19.6" r="1.03" fill="#1A1410" opacity="0.12"/><circle cx="14.0" cy="90.1" r="0.52" fill="#1A1410" opacity="0.28"/><circle cx="29.5" cy="19.5" r="0.96" fill="#1A1410" opacity="0.17"/><circle cx="12.7" cy="55.2" r="0.97" fill="#1A1410" opacity="0.17"/><circle cx="56.3" cy="123.0" r="0.53" fill="#1A1410" opacity="0.19"/><circle cx="75.4" cy="127.6" r="0.41" fill="#1A1410" opacity="0.16"/><circle cx="95.0" cy="5.0" r="0.70" fill="#1A1410" opacity="0.28"/><circle cx="18.3" cy="20.3" r="0.40" fill="#1A1410" opacity="0.16"/><circle cx="43.9" cy="38.3" r="0.76" fill="#1A1410" opacity="0.11"/><circle cx="31.1" cy="63.0" r="0.94" fill="#1A1410" opacity="0.12"/><circle cx="16.8" cy="111.6" r="1.00" fill="#1A1410" opacity="0.18"/><circle cx="34.0" cy="84.8" r="1.02" fill="#1A1410" opacity="0.15"/><circle cx="103.8" cy="110.9" r="0.36" fill="#1A1410" opacity="0.22"/><circle cx="8.4" cy="16.3" r="0.43" fill="#1A1410" opacity="0.27"/><circle cx="75.1" cy="7.6" r="0.43" fill="#1A1410" opacity="0.24"/><circle cx="64.4" cy="95.8" r="0.93" fill="#1A1410" opacity="0.13"/><circle cx="50.7" cy="124.9" r="0.72" fill="#1A1410" opacity="0.17"/><circle cx="126.2" cy="86.6" r="0.60" fill="#1A1410" opacity="0.25"/><circle cx="19.7" cy="20.6" r="0.81" fill="#1A1410" opacity="0.22"/><circle cx="67.6" cy="112.3" r="0.55" fill="#1A1410" opacity="0.25"/><circle cx="48.8" cy="127.6" r="0.78" fill="#1A1410" opacity="0.11"/><circle cx="84.8" cy="0.1" r="0.44" fill="#1A1410" opacity="0.16"/><circle cx="27.7" cy="9.7" r="0.94" fill="#1A1410" opacity="0.13"/><circle cx="67.2" cy="83.7" r="0.67" fill="#1A1410" opacity="0.11"/><circle cx="83.7" cy="122.0" r="0.49" fill="#1A1410" opacity="0.14"/><circle cx="9.1" cy="77.5" r="0.92" fill="#1A1410" opacity="0.18"/><circle cx="36.8" cy="51.4" r="1.04" fill="#1A1410" opacity="0.23"/><circle cx="4.2" cy="49.6" r="0.90" fill="#1A1410" opacity="0.20"/><circle cx="97.3" cy="13.6" r="0.80" fill="#1A1410" opacity="0.13"/><circle cx="19.7" cy="19.4" r="0.46" fill="#1A1410" opacity="0.22"/><circle cx="118.5" cy="115.5" r="0.87" fill="#1A1410" opacity="0.20"/><circle cx="55.3" cy="74.6" r="0.35" fill="#1A1410" opacity="0.20"/><circle cx="93.5" cy="106.7" r="0.75" fill="#1A1410" opacity="0.18"/><circle cx="105.1" cy="89.8" r="0.48" fill="#1A1410" opacity="0.24"/><circle cx="50.9" cy="91.4" r="0.81" fill="#1A1410" opacity="0.18"/><circle cx="11.9" cy="25.5" r="0.90" fill="#1A1410" opacity="0.27"/><circle cx="61.1" cy="90.8" r="0.58" fill="#1A1410" opacity="0.12"/><circle cx="39.4" cy="48.3" r="0.66" fill="#1A1410" opacity="0.16"/></g><rect width="128" height="128" fill="url(#vig-wsr8di2b)"/>
</svg>