<svg xmlns="http://www.w3.org/2000/svg" width="128" height="128" viewBox="0 0 128 128">
<rect width="128" height="128" fill="#CDB992"/>

    <defs>
  <filter id="grain-sttau" x="0" y="0" width="100%" height="100%">
    <feTurbulence type="fractalNoise" baseFrequency="0.9" numOctaves="2" seed="140" result="n"/>
    <feColorMatrix in="n" type="matrix" values="0 0 0 0 0.1 0 0 0 0 0.08 0 0 0 0 0.06 0 0 0 0.09 0"/>
    <feComposite operator="over" in2="SourceGraphic"/>
  </filter>
  <filter id="wobble-sttau" x="-5%" y="-5%" width="110%" height="110%">
    <feTurbulence type="turbulence" baseFrequency="0.05" numOctaves="2" seed="347" result="t"/>
    <feDisplacementMap in="SourceGraphic" in2="t" scale="2.4"/>
  </filter>
  <pattern id="hatch-sttau" width="6" height="6" patternTransform="rotate(45)" patternUnits="userSpaceOnUse">
    <rect width="6" height="6" fill="none"/><line x1="0" y1="0" x2="0" y2="6" stroke="#1A1410" stroke-width="1"/>
  </pattern>
  <pattern id="cross-sttau" width="7" height="7" patternUnits="userSpaceOnUse" patternTransform="rotate(45)">
    <line x1="0" y1="0" x2="0" y2="7" stroke="#1A1410" stroke-width="0.9"/><line x1="0" y1="0" x2="7" y2="0" stroke="#1A1410" stroke-width="0.9"/>
  </pattern>
  <radialGradient id="vig-sttau" cx="50%" cy="46%" r="72%">
    <stop offset="62%" stop-color="#000000" stop-opacity="0"/>
    <stop offset="100%" stop-color="#000000" stop-opacity="0.26"/>
  </radialGradient>
</defs><ellipse cx="64" cy="70" rx="50" ry="46" fill="#1A1410" opacity="0.16"/>
    <circle cx="64" cy="64" r="46" fill="#7B1A1F" stroke="#1A1410" stroke-width="2.6"/>
    <circle cx="64" cy="64" r="46" fill="none" stroke="#000" stroke-width="1" opacity="0.3" transform="translate(0 3)"/>
    <circle cx="64" cy="64" r="36" fill="none" stroke="#1A1410" stroke-width="1.6"/>
    <path d="M64 38 V90 M42 38 H86" stroke="#1A1410" stroke-width="3" fill="none" stroke-linecap="round"/>
    <path d="M-73.5 -8.2 L-31.1 27.9 L12.9 63.9" stroke="#000" stroke-width="0.5" fill="none" stroke-linecap="round"/><path d="M-67.3 -2.9 L-23.7 33.3 L19.3 69.4" stroke="#000" stroke-width="0.5" fill="none" stroke-linecap="round"/><path d="M-59.8 3.6 L-16.4 39.2 L26.0 75.8" stroke="#000" stroke-width="0.5" fill="none" stroke-linecap="round"/><path d="M-52.7 9.1 L-10.4 44.8 L32.8 81.6" stroke="#000" stroke-width="0.5" fill="none" stroke-linecap="round"/><path d="M-46.5 14.6 L-2.6 51.2 L40.5 86.8" stroke="#000" stroke-width="0.5" fill="none" stroke-linecap="round"/><path d="M-39.2 20.2 L3.6 56.4 L47.4 93.2" stroke="#000" stroke-width="0.5" fill="none" stroke-linecap="round"/><path d="M-32.3 25.9 L11.2 62.4 L53.7 98.7" stroke="#000" stroke-width="0.5" fill="none" stroke-linecap="round"/><path d="M-25.4 32.4 L17.8 68.5 L60.9 104.1" stroke="#000" stroke-width="0.5" fill="none" stroke-linecap="round"/><path d="M-18.2 37.7 L24.9 74.4 L67.4 110.6" stroke="#000" stroke-width="0.5" fill="none" stroke-linecap="round"/><path d="M-12.1 43.4 L31.3 79.5 L74.2 115.8" stroke="#000" stroke-width="0.5" fill="none" stroke-linecap="round"/><path d="M-5.2 49.3 L38.2 85.7 L81.2 121.4" stroke="#000" stroke-width="0.5" fill="none" stroke-linecap="round"/><path d="M2.5 54.8 L45.1 91.1 L88.0 127.9" stroke="#000" stroke-width="0.5" fill="none" stroke-linecap="round"/><path d="M8.6 60.7 L52.5 97.1 L95.6 133.2" stroke="#000" stroke-width="0.5" fill="none" stroke-linecap="round"/>
    <g opacity="0.5"><circle cx="14.6" cy="57.6" r="0.64" fill="#1A1410" opacity="0.12"/><circle cx="5.8" cy="49.1" r="0.94" fill="#1A1410" opacity="0.14"/><circle cx="34.0" cy="118.7" r="0.61" fill="#1A1410" opacity="0.28"/><circle cx="24.0" cy="63.7" r="0.60" fill="#1A1410" opacity="0.14"/><circle cx="42.2" cy="53.9" r="0.37" fill="#1A1410" opacity="0.18"/><circle cx="71.7" cy="51.6" r="0.36" fill="#1A1410" opacity="0.13"/><circle cx="12.1" cy="98.0" r="0.73" fill="#1A1410" opacity="0.17"/><circle cx="85.7" cy="116.6" r="0.77" fill="#1A1410" opacity="0.12"/><circle cx="82.4" cy="87.3" r="0.70" fill="#1A1410" opacity="0.11"/><circle cx="90.5" cy="102.5" r="0.60" fill="#1A1410" opacity="0.25"/><circle cx="77.3" cy="53.8" r="0.42" fill="#1A1410" opacity="0.15"/><circle cx="104.6" cy="122.6" r="0.53" fill="#1A1410" opacity="0.27"/><circle cx="49.1" cy="77.1" r="0.80" fill="#1A1410" opacity="0.11"/><circle cx="116.3" cy="32.6" r="0.61" fill="#1A1410" opacity="0.21"/><circle cx="103.6" cy="122.0" r="1.04" fill="#1A1410" opacity="0.26"/><circle cx="2.9" cy="90.3" r="0.87" fill="#1A1410" opacity="0.17"/><circle cx="101.5" cy="2.1" r="1.04" fill="#1A1410" opacity="0.23"/><circle cx="115.6" cy="59.2" r="0.51" fill="#1A1410" opacity="0.18"/><circle cx="47.1" cy="4.8" r="0.81" fill="#1A1410" opacity="0.14"/><circle cx="118.7" cy="84.6" r="0.64" fill="#1A1410" opacity="0.14"/><circle cx="80.3" cy="83.2" r="0.58" fill="#1A1410" opacity="0.20"/><circle cx="58.3" cy="123.4" r="0.91" fill="#1A1410" opacity="0.12"/><circle cx="73.7" cy="125.9" r="0.95" fill="#1A1410" opacity="0.12"/><circle cx="105.2" cy="18.6" r="0.84" fill="#1A1410" opacity="0.18"/><circle cx="12.7" cy="25.7" r="1.03" fill="#1A1410" opacity="0.28"/><circle cx="121.5" cy="34.4" r="0.69" fill="#1A1410" opacity="0.27"/><circle cx="47.8" cy="127.3" r="0.61" fill="#1A1410" opacity="0.24"/><circle cx="31.3" cy="31.7" r="0.99" fill="#1A1410" opacity="0.14"/><circle cx="38.3" cy="80.8" r="0.69" fill="#1A1410" opacity="0.18"/><circle cx="19.5" cy="81.4" r="0.50" fill="#1A1410" opacity="0.12"/><circle cx="102.0" cy="57.7" r="0.83" fill="#1A1410" opacity="0.19"/><circle cx="90.5" cy="86.8" r="0.50" fill="#1A1410" opacity="0.23"/><circle cx="87.5" cy="106.5" r="0.78" fill="#1A1410" opacity="0.20"/><circle cx="10.7" cy="51.8" r="0.75" fill="#1A1410" opacity="0.12"/><circle cx="14.9" cy="32.1" r="1.02" fill="#1A1410" opacity="0.25"/><circle cx="117.6" cy="124.4" r="0.52" fill="#1A1410" opacity="0.22"/><circle cx="115.3" cy="65.8" r="0.80" fill="#1A1410" opacity="0.12"/><circle cx="90.8" cy="84.7" r="0.44" fill="#1A1410" opacity="0.13"/><circle cx="68.7" cy="60.2" r="0.83" fill="#1A1410" opacity="0.23"/><circle cx="6.2" cy="58.0" r="1.00" fill="#1A1410" opacity="0.15"/><circle cx="44.4" cy="78.6" r="0.58" fill="#1A1410" opacity="0.22"/><circle cx="58.3" cy="121.2" r="0.85" fill="#1A1410" opacity="0.23"/><circle cx="71.6" cy="33.4" r="0.53" fill="#1A1410" opacity="0.23"/><circle cx="89.3" cy="126.2" r="0.76" fill="#1A1410" opacity="0.12"/><circle cx="42.2" cy="106.6" r="0.86" fill="#1A1410" opacity="0.22"/><circle cx="53.0" cy="27.2" r="0.39" fill="#1A1410" opacity="0.20"/><circle cx="63.7" cy="125.1" r="0.50" fill="#1A1410" opacity="0.26"/><circle cx="120.2" cy="47.9" r="0.86" fill="#1A1410" opacity="0.26"/><circle cx="33.5" cy="103.9" r="1.03" fill="#1A1410" opacity="0.15"/><circle cx="102.1" cy="89.2" r="0.52" fill="#1A1410" opacity="0.20"/><circle cx="56.7" cy="1.2" r="0.90" fill="#1A1410" opacity="0.26"/><circle cx="5.8" cy="62.2" r="0.61" fill="#1A1410" opacity="0.20"/><circle cx="48.7" cy="99.9" r="0.92" fill="#1A1410" opacity="0.12"/><circle cx="32.0" cy="78.3" r="0.41" fill="#1A1410" opacity="0.21"/><circle cx="69.2" cy="25.5" r="0.72" fill="#1A1410" opacity="0.22"/><circle cx="83.5" cy="109.0" r="0.77" fill="#1A1410" opacity="0.18"/><circle cx="74.3" cy="109.8" r="0.36" fill="#1A1410" opacity="0.15"/><circle cx="102.0" cy="50.1" r="0.38" fill="#1A1410" opacity="0.24"/><circle cx="69.7" cy="77.7" r="1.04" fill="#1A1410" opacity="0.28"/><circle cx="72.1" cy="127.7" r="0.40" fill="#1A1410" opacity="0.14"/><circle cx="61.0" cy="111.4" r="0.46" fill="#1A1410" opacity="0.13"/><circle cx="121.4" cy="47.7" r="0.80" fill="#1A1410" opacity="0.24"/><circle cx="116.5" cy="86.0" r="0.91" fill="#1A1410" opacity="0.17"/><circle cx="114.1" cy="125.9" r="0.78" fill="#1A1410" opacity="0.27"/><circle cx="25.1" cy="62.2" r="0.65" fill="#1A1410" opacity="0.11"/><circle cx="116.0" cy="121.3" r="0.48" fill="#1A1410" opacity="0.23"/><circle cx="118.4" cy="75.1" r="0.61" fill="#1A1410" opacity="0.19"/><circle cx="27.2" cy="124.2" r="0.38" fill="#1A1410" opacity="0.12"/><circle cx="22.8" cy="102.2" r="0.88" fill="#1A1410" opacity="0.18"/><circle cx="107.9" cy="36.0" r="0.41" fill="#1A1410" opacity="0.14"/></g><rect width="128" height="128" fill="url(#vig-sttau)"/>
</svg>