<svg xmlns="http://www.w3.org/2000/svg" width="128" height="128" viewBox="0 0 128 128">
<rect width="128" height="128" fill="rgba(0,0,0,0)"/>

  <defs>
  <filter id="grain-cdlit" x="0" y="0" width="100%" height="100%">
    <feTurbulence type="fractalNoise" baseFrequency="0.9" numOctaves="2" seed="71" result="n"/>
    <feColorMatrix in="n" type="matrix" values="0 0 0 0 0.1 0 0 0 0 0.08 0 0 0 0 0.06 0 0 0 0.09 0"/>
    <feComposite operator="over" in2="SourceGraphic"/>
  </filter>
  <filter id="wobble-cdlit" x="-5%" y="-5%" width="110%" height="110%">
    <feTurbulence type="turbulence" baseFrequency="0.05" numOctaves="2" seed="478" result="t"/>
    <feDisplacementMap in="SourceGraphic" in2="t" scale="2.4"/>
  </filter>
  <pattern id="hatch-cdlit" width="6" height="6" patternTransform="rotate(45)" patternUnits="userSpaceOnUse">
    <rect width="6" height="6" fill="none"/><line x1="0" y1="0" x2="0" y2="6" stroke="#1A1410" stroke-width="1"/>
  </pattern>
  <pattern id="cross-cdlit" width="7" height="7" patternUnits="userSpaceOnUse" patternTransform="rotate(45)">
    <line x1="0" y1="0" x2="0" y2="7" stroke="#1A1410" stroke-width="0.9"/><line x1="0" y1="0" x2="7" y2="0" stroke="#1A1410" stroke-width="0.9"/>
  </pattern>
  <radialGradient id="vig-cdlit" cx="50%" cy="46%" r="72%">
    <stop offset="62%" stop-color="#000000" stop-opacity="0"/>
    <stop offset="100%" stop-color="#000000" stop-opacity="0.26"/>
  </radialGradient>
</defs>
  <rect x="52" y="56" width="24" height="54" rx="3" fill="#CDB992" stroke="#1A1410" stroke-width="2.4"/>
  <path d="M13.4 61.5 L13.6 72.2 L13.7 83.0" stroke="#000" stroke-width="0.5" fill="none" stroke-linecap="round"/><path d="M13.3 66.5 L14.0 77.1 L14.0 88.3" stroke="#000" stroke-width="0.5" fill="none" stroke-linecap="round"/><path d="M13.7 71.1 L13.8 82.2 L14.6 93.1" stroke="#000" stroke-width="0.5" fill="none" stroke-linecap="round"/><path d="M14.0 76.4 L14.1 87.4 L14.8 97.9" stroke="#000" stroke-width="0.5" fill="none" stroke-linecap="round"/><path d="M14.0 81.5 L14.1 92.3 L14.5 103.2" stroke="#000" stroke-width="0.5" fill="none" stroke-linecap="round"/>
  <rect x="44" y="108" width="40" height="8" rx="2" fill="#6F5B31" stroke="#1A1410" stroke-width="2"/>
  
    <path d="M64 22 Q72 34 64 46 Q56 34 64 22 Z" fill="#7B1A1F" stroke="#1A1410" stroke-width="1.6"/>
    <path d="M64 32 Q68 38 64 44 Q60 38 64 32 Z" fill="#CDB992"/>
    
  <g opacity="0.5"><circle cx="54.6" cy="27.9" r="0.71" fill="#1A1410" opacity="0.14"/><circle cx="101.9" cy="80.4" r="0.41" fill="#1A1410" opacity="0.21"/><circle cx="103.5" cy="78.4" r="0.86" fill="#1A1410" opacity="0.23"/><circle cx="43.7" cy="40.6" r="0.67" fill="#1A1410" opacity="0.24"/><circle cx="11.3" cy="97.2" r="0.73" fill="#1A1410" opacity="0.16"/><circle cx="23.0" cy="26.8" r="0.39" fill="#1A1410" opacity="0.20"/><circle cx="88.5" cy="122.9" r="0.73" fill="#1A1410" opacity="0.17"/><circle cx="21.9" cy="117.0" r="0.86" fill="#1A1410" opacity="0.22"/><circle cx="45.9" cy="11.7" r="0.71" fill="#1A1410" opacity="0.15"/><circle cx="57.1" cy="70.6" r="0.39" fill="#1A1410" opacity="0.24"/><circle cx="78.0" cy="66.0" r="0.55" fill="#1A1410" opacity="0.17"/><circle cx="107.4" cy="79.8" r="0.94" fill="#1A1410" opacity="0.20"/><circle cx="5.9" cy="56.1" r="0.97" fill="#1A1410" opacity="0.23"/><circle cx="94.6" cy="19.6" r="0.79" fill="#1A1410" opacity="0.26"/><circle cx="59.9" cy="58.0" r="0.59" fill="#1A1410" opacity="0.27"/><circle cx="121.6" cy="23.4" r="0.45" fill="#1A1410" opacity="0.12"/><circle cx="29.5" cy="114.5" r="0.44" fill="#1A1410" opacity="0.17"/><circle cx="11.2" cy="23.5" r="0.55" fill="#1A1410" opacity="0.19"/><circle cx="68.4" cy="58.9" r="0.46" fill="#1A1410" opacity="0.14"/><circle cx="14.8" cy="93.4" r="0.54" fill="#1A1410" opacity="0.13"/><circle cx="40.2" cy="9.4" r="1.02" fill="#1A1410" opacity="0.13"/><circle cx="127.5" cy="95.1" r="0.75" fill="#1A1410" opacity="0.14"/><circle cx="32.8" cy="29.5" r="0.35" fill="#1A1410" opacity="0.14"/><circle cx="101.3" cy="18.4" r="0.69" fill="#1A1410" opacity="0.15"/><circle cx="14.5" cy="71.1" r="0.70" fill="#1A1410" opacity="0.27"/><circle cx="29.2" cy="22.3" r="0.97" fill="#1A1410" opacity="0.23"/><circle cx="45.4" cy="48.7" r="1.02" fill="#1A1410" opacity="0.26"/><circle cx="92.3" cy="99.5" r="0.60" fill="#1A1410" opacity="0.15"/><circle cx="98.9" cy="4.6" r="0.56" fill="#1A1410" opacity="0.16"/><circle cx="112.2" cy="102.7" r="0.97" fill="#1A1410" opacity="0.26"/><circle cx="51.5" cy="93.8" r="0.87" fill="#1A1410" opacity="0.27"/><circle cx="126.6" cy="46.8" r="0.75" fill="#1A1410" opacity="0.25"/><circle cx="20.9" cy="30.2" r="0.93" fill="#1A1410" opacity="0.13"/><circle cx="108.9" cy="98.9" r="0.40" fill="#1A1410" opacity="0.26"/><circle cx="68.8" cy="88.2" r="0.38" fill="#1A1410" opacity="0.23"/><circle cx="24.9" cy="87.1" r="0.73" fill="#1A1410" opacity="0.22"/><circle cx="114.1" cy="45.8" r="1.02" fill="#1A1410" opacity="0.21"/><circle cx="73.0" cy="94.1" r="0.65" fill="#1A1410" opacity="0.15"/><circle cx="33.6" cy="95.1" r="1.05" fill="#1A1410" opacity="0.17"/><circle cx="36.4" cy="93.2" r="0.80" fill="#1A1410" opacity="0.13"/></g><rect width="128" height="128" fill="url(#vig-cdlit)"/>
</svg>